<svg width="250" height="120" viewBox="0 0 250 120" fill="none" xmlns="http://www.w3.org/2000/svg">
<g clip-path="url(#clip0_65_101)">
<path d="M195.286 18.0288H133.983V16.7607H106.186V18.0288H44.6299C43.5301 18.0288 42.4753 18.4673 41.6975 19.2479C40.9198 20.0285 40.4829 21.0872 40.4829 22.1912V106.445C40.4829 107.549 40.9198 108.607 41.6975 109.388C42.4753 110.169 43.5301 110.607 44.6299 110.607H195.286C196.386 110.607 197.44 110.169 198.218 109.388C198.996 108.607 199.433 107.549 199.433 106.445V22.1907C199.433 21.0869 198.996 20.0283 198.218 19.2478C197.44 18.4672 196.385 18.0288 195.286 18.0288Z" fill="#3F3D56"/>
<path d="M193.873 25.3842H46.043V109.085H193.873V25.3842Z" fill="#E6E6E6"/>
<path d="M187.654 29.8105H52.312V102.159H187.654V29.8105Z" fill="white"/>
<path d="M119.832 23.1017C120.669 23.1017 121.348 22.4204 121.348 21.5798C121.348 20.7393 120.669 20.058 119.832 20.058C118.994 20.058 118.315 20.7393 118.315 21.5798C118.315 22.4204 118.994 23.1017 119.832 23.1017Z" fill="#162995"/>
<path d="M203.583 107.563H189.156V106.52C189.156 106.465 189.134 106.412 189.096 106.373C189.057 106.335 189.005 106.313 188.95 106.313H184.003C183.949 106.313 183.896 106.335 183.858 106.373C183.819 106.412 183.797 106.465 183.797 106.52V107.563H180.706V106.52C180.706 106.465 180.684 106.412 180.645 106.373C180.607 106.335 180.554 106.313 180.5 106.313H175.553C175.498 106.313 175.446 106.335 175.407 106.373C175.369 106.412 175.347 106.465 175.347 106.52V107.563H172.256V106.52C172.256 106.465 172.234 106.412 172.195 106.373C172.157 106.335 172.104 106.313 172.049 106.313H167.103C167.048 106.313 166.996 106.335 166.957 106.373C166.918 106.412 166.897 106.465 166.897 106.52V107.563H163.805V106.52C163.805 106.465 163.784 106.412 163.745 106.373C163.706 106.335 163.654 106.313 163.599 106.313H158.653C158.598 106.313 158.546 106.335 158.507 106.373C158.468 106.412 158.447 106.465 158.447 106.52V107.563H155.355V106.52C155.355 106.465 155.333 106.412 155.295 106.373C155.256 106.335 155.203 106.313 155.149 106.313H150.203C150.148 106.313 150.095 106.335 150.057 106.373C150.018 106.412 149.996 106.465 149.996 106.52V107.563H146.905V106.52C146.905 106.465 146.883 106.412 146.844 106.373C146.806 106.335 146.753 106.313 146.699 106.313H141.753C141.699 106.313 141.646 106.335 141.607 106.373C141.569 106.412 141.547 106.465 141.547 106.52V107.563H138.454V106.52C138.454 106.465 138.433 106.412 138.394 106.373C138.355 106.335 138.303 106.313 138.248 106.313H99.5008C99.4462 106.313 99.3937 106.335 99.3551 106.373C99.3164 106.412 99.2947 106.465 99.2947 106.52V107.563H96.2032V106.52C96.2032 106.465 96.1815 106.412 96.1429 106.373C96.1042 106.335 96.0518 106.313 95.9971 106.313H91.0506C90.9959 106.313 90.9434 106.335 90.9048 106.373C90.8661 106.412 90.8444 106.465 90.8444 106.52V107.563H87.753V106.52C87.753 106.465 87.7312 106.412 87.6926 106.373C87.6539 106.335 87.6015 106.313 87.5468 106.313H82.6005C82.5458 106.313 82.4934 106.335 82.4547 106.373C82.4161 106.412 82.3943 106.465 82.3943 106.52V107.563H79.3027V106.52C79.3027 106.465 79.281 106.412 79.2423 106.373C79.2036 106.335 79.1512 106.313 79.0965 106.313H74.1502C74.0955 106.313 74.0431 106.335 74.0044 106.373C73.9658 106.412 73.9441 106.465 73.9441 106.52V107.563H70.8531V106.52C70.8531 106.465 70.8314 106.412 70.7927 106.373C70.7541 106.335 70.7016 106.313 70.6469 106.313H65.6999C65.6453 106.313 65.5928 106.335 65.5542 106.373C65.5155 106.412 65.4938 106.465 65.4938 106.52V107.563H62.4023V106.52C62.4023 106.465 62.3806 106.412 62.342 106.373C62.3033 106.335 62.2509 106.313 62.1962 106.313H57.2497C57.195 106.313 57.1425 106.335 57.1039 106.373C57.0652 106.412 57.0435 106.465 57.0435 106.52V107.563H53.9521V106.52C53.9521 106.465 53.9303 106.412 53.8917 106.373C53.853 106.335 53.8006 106.313 53.7459 106.313H48.7984C48.7438 106.313 48.6913 106.335 48.6527 106.373C48.614 106.412 48.5923 106.465 48.5923 106.52V107.563H39.1125C37.8006 107.563 36.5425 108.086 35.6148 109.017C34.6872 109.948 34.166 111.211 34.166 112.528V114.773C34.166 116.09 34.6872 117.352 35.6148 118.284C36.5425 119.215 37.8006 119.738 39.1125 119.738H203.583C204.895 119.738 206.153 119.215 207.081 118.284C208.009 117.353 208.53 116.09 208.53 114.773V112.528C208.53 111.211 208.009 109.949 207.081 109.018C206.153 108.086 204.895 107.563 203.583 107.563V107.563Z" fill="#3F3D56"/>
<path d="M149.908 34.8849H90.0586V98.0307H149.908V34.8849Z" fill="#E6E6E6"/>
<path d="M250 119.527H0V120H250V119.527Z" fill="#E6E6E6"/>
<path d="M225.72 103.004C229.108 106.652 229.283 112.015 229.283 112.015C229.283 112.015 223.966 111.462 220.579 107.813C217.191 104.165 217.016 98.8026 217.016 98.8026C217.016 98.8026 222.333 99.3556 225.72 103.004Z" fill="#162995"/>
<path d="M236.384 108.699C232.749 112.098 227.407 112.274 227.407 112.274C227.407 112.274 227.958 106.938 231.592 103.538C235.227 100.138 240.57 99.962 240.57 99.962C240.57 99.962 240.019 105.299 236.384 108.699Z" fill="#162995"/>
<path d="M235.481 119.527H222.112C221.855 119.527 221.604 119.454 221.386 119.318C221.169 119.181 220.994 118.986 220.882 118.755L217.971 112.749C217.87 112.54 217.823 112.308 217.835 112.076C217.847 111.843 217.918 111.618 218.041 111.42C218.164 111.223 218.335 111.06 218.538 110.948C218.741 110.835 218.969 110.776 219.201 110.776H238.392C238.624 110.776 238.852 110.835 239.055 110.948C239.258 111.06 239.429 111.223 239.552 111.42C239.675 111.618 239.746 111.843 239.758 112.076C239.77 112.308 239.723 112.54 239.622 112.749L236.711 118.755C236.599 118.986 236.424 119.182 236.207 119.318C235.989 119.455 235.738 119.527 235.481 119.527L235.481 119.527Z" fill="#E5E5E5"/>
<path d="M14.363 103.004C17.7503 106.652 17.9254 112.015 17.9254 112.015C17.9254 112.015 12.6085 111.462 9.22113 107.813C5.83376 104.165 5.65869 98.8026 5.65869 98.8026C5.65869 98.8026 10.9756 99.3556 14.363 103.004Z" fill="#E5E5E5"/>
<path d="M22.0029 119.527H8.63366C8.37714 119.527 8.12577 119.454 7.9083 119.318C7.69083 119.181 7.51604 118.986 7.40393 118.755L4.49323 112.749C4.39159 112.54 4.34466 112.308 4.35688 112.076C4.36909 111.843 4.44004 111.618 4.56304 111.42C4.68604 111.223 4.85705 111.06 5.05997 110.948C5.2629 110.835 5.49105 110.776 5.72297 110.776H24.9138C25.1457 110.776 25.3739 110.835 25.5768 110.948C25.7797 111.06 25.9507 111.223 26.0737 111.42C26.1968 111.618 26.2677 111.843 26.2799 112.076C26.2921 112.308 26.2452 112.54 26.1436 112.749L23.2329 118.755C23.1207 118.986 22.946 119.182 22.7285 119.318C22.511 119.455 22.2596 119.527 22.0031 119.527L22.0029 119.527Z" fill="#E5E5E5"/>
<path d="M127.205 52.7604C131.597 52.7604 135.159 49.186 135.159 44.7768C135.159 40.3676 131.597 36.7932 127.205 36.7932C122.812 36.7932 119.25 40.3676 119.25 44.7768C119.25 49.186 122.812 52.7604 127.205 52.7604Z" fill="#A0616A"/>
<path d="M108.903 98.1608L114.04 65.7041C114.313 63.9784 114.949 62.3309 115.906 60.8712C116.863 59.4115 118.118 58.1731 119.589 57.2383C121.06 56.3035 122.712 55.6938 124.436 55.4497C126.16 55.2056 127.915 55.3328 129.586 55.8228C132.508 56.671 135.01 58.5819 136.603 61.1822C138.196 63.7826 138.766 66.8856 138.201 69.8852L132.829 98.8705L108.903 98.1608Z" fill="#162995"/>
<path d="M129.4 103.968C129.798 103.705 130.133 103.357 130.382 102.95C130.631 102.543 130.788 102.085 130.841 101.611C130.895 101.136 130.845 100.655 130.694 100.202C130.542 99.7489 130.294 99.3346 129.966 98.9883L135.276 88.6676L129.296 89.308L125.17 99.0107C124.63 99.6029 124.324 100.373 124.31 101.177C124.297 101.98 124.576 102.76 125.097 103.37C125.618 103.981 126.343 104.378 127.136 104.488C127.929 104.599 128.734 104.414 129.4 103.968L129.4 103.968Z" fill="#A0616A"/>
<path d="M130.537 97.1679C130.244 97.1263 129.97 96.9958 129.752 96.7938L127.72 94.9096C127.501 94.705 127.349 94.4378 127.286 94.144C127.223 93.8502 127.251 93.544 127.367 93.2668L131.427 83.607L130.851 64.5201C131.019 63.2819 131.671 62.1614 132.662 61.4053C133.653 60.6491 134.903 60.3192 136.137 60.4881C137.371 60.6571 138.487 61.311 139.24 62.306C139.994 63.301 140.322 64.5557 140.154 65.7939L141.139 77.7923C141.438 81.4339 140.41 85.0605 138.245 87.9978L131.913 96.5897C131.791 96.7548 131.636 96.8923 131.457 96.9934C131.279 97.0944 131.082 97.1566 130.878 97.176C130.765 97.1868 130.65 97.1841 130.537 97.1679Z" fill="#162995"/>
<path d="M81.3994 40.4271C81.486 40.8969 81.6743 41.342 81.9509 41.7309C82.2274 42.1198 82.5856 42.4432 83.0001 42.6782C83.4147 42.9131 83.8755 43.054 84.3501 43.0909C84.8248 43.1278 85.3017 43.0598 85.7474 42.8916L93.1461 51.8233L94.8897 46.0466L87.5966 38.4504C87.2639 37.7201 86.6763 37.1373 85.9448 36.8119C85.2134 36.4866 84.3885 36.4413 83.626 36.6845C82.8635 36.9277 82.2161 37.4426 81.8059 38.1321C81.3958 38.8216 81.251 39.6379 81.3994 40.4271Z" fill="#A0616A"/>
<path d="M87.1953 44.1293C87.348 43.874 87.5746 43.6716 87.8449 43.5489L90.3661 42.4059C90.6393 42.2828 90.9436 42.2468 91.2379 42.303C91.5321 42.3591 91.802 42.5046 92.0112 42.7197L99.2907 50.2388L117.027 57.1482C117.557 57.464 118.02 57.8817 118.39 58.3773C118.76 58.8729 119.028 59.4368 119.181 60.0367C119.333 60.6366 119.366 61.2607 119.278 61.8734C119.19 62.4861 118.983 63.0754 118.668 63.6077C118.352 64.1399 117.936 64.6046 117.442 64.9752C116.948 65.3458 116.386 65.6151 115.788 65.7676C115.191 65.9201 114.569 65.953 113.958 65.8642C113.348 65.7754 112.761 65.5668 112.231 65.2502L100.839 61.4823C97.3813 60.3392 94.4549 57.9744 92.6043 54.8279L87.1905 45.6256C87.0866 45.4486 87.0208 45.2517 86.9977 45.0475C86.9745 44.8434 86.9944 44.6367 87.056 44.4407C87.0903 44.3318 87.1372 44.2273 87.196 44.1295L87.1953 44.1293Z" fill="#162995"/>
<path opacity="0.1" d="M133.656 72.46L133.333 82.8615L127.367 93.2676L132.348 81.6719L133.656 72.46Z" fill="black"/>
<path d="M121.818 40.7752C122.638 41.7498 124.027 42.0246 125.307 42.1374C127.908 42.3664 131.691 41.9955 134.233 41.4059C134.414 43.171 133.92 45.0738 134.955 46.5257C135.441 44.768 135.723 42.96 135.797 41.1375C135.828 40.3571 135.816 39.5473 135.499 38.8297C135.183 38.1122 134.493 37.5032 133.698 37.4968C134.288 37.0472 134.98 36.7504 135.712 36.6326L133.195 35.3633L133.842 34.6974L129.285 34.4176L130.605 33.5761C128.619 33.3024 126.61 33.239 124.61 33.3869C123.682 33.4555 122.711 33.5867 121.959 34.1267C121.207 34.6666 120.772 35.7396 121.239 36.5324C120.655 36.6287 120.104 36.8733 119.64 37.2429C119.176 37.6126 118.813 38.095 118.587 38.6446C118.252 39.4979 118.282 40.4458 118.386 41.3551C118.558 42.8094 118.894 44.2393 119.39 45.6168" fill="#2F2E41"/>
<path d="M155.821 20.7752L83.3426 37.5702C82.9867 37.6523 82.6129 37.5892 82.3032 37.395C81.9935 37.2008 81.7732 36.8912 81.6906 36.5341L77.5399 18.4886C77.4581 18.1314 77.5209 17.7562 77.7144 17.4453C77.908 17.1344 78.2164 16.9133 78.5722 16.8304L151.05 0.0354169C151.406 -0.0466126 151.78 0.0164067 152.09 0.210649C152.4 0.404892 152.62 0.714495 152.703 1.07155L156.853 19.1171C156.935 19.4743 156.872 19.8495 156.679 20.1604C156.485 20.4712 156.177 20.6923 155.821 20.7752Z" fill="white"/>
<path d="M155.821 20.7752L83.3426 37.5702C82.9867 37.6523 82.6129 37.5892 82.3032 37.395C81.9935 37.2008 81.7732 36.8912 81.6906 36.5341L77.5399 18.4886C77.4581 18.1314 77.5209 17.7562 77.7144 17.4453C77.908 17.1344 78.2164 16.9133 78.5722 16.8304L151.05 0.0354169C151.406 -0.0466126 151.78 0.0164067 152.09 0.210649C152.4 0.404892 152.62 0.714495 152.703 1.07155L156.853 19.1171C156.935 19.4743 156.872 19.8495 156.679 20.1604C156.485 20.4712 156.177 20.6923 155.821 20.7752ZM78.6962 17.3694C78.4827 17.4192 78.2976 17.5518 78.1814 17.7384C78.0653 17.9249 78.0276 18.1501 78.0767 18.3644L82.2274 36.41C82.2769 36.6242 82.4091 36.8101 82.5949 36.9266C82.7808 37.0432 83.0052 37.081 83.2188 37.0317L155.697 20.2367C155.911 20.187 156.096 20.0543 156.212 19.8678C156.328 19.6812 156.366 19.456 156.317 19.2417L152.166 1.19593C152.116 0.981628 151.984 0.795792 151.798 0.67922C151.612 0.562647 151.388 0.524865 151.174 0.574166L78.6962 17.3694Z" fill="#E6E6E6"/>
<path d="M103.846 17.3136C103.726 17.3411 103.613 17.392 103.513 17.4634C103.413 17.5348 103.327 17.6253 103.262 17.7298C103.197 17.8342 103.153 17.9505 103.132 18.0721C103.112 18.1936 103.115 18.3181 103.143 18.4383C103.17 18.5584 103.221 18.672 103.292 18.7725C103.363 18.873 103.453 18.9585 103.558 19.024C103.662 19.0895 103.778 19.1337 103.899 19.1543C104.02 19.1748 104.144 19.1712 104.263 19.1436L104.267 19.1429L147.224 9.1885C147.466 9.13218 147.675 8.98203 147.806 8.77102C147.937 8.56001 147.979 8.30538 147.924 8.06306C147.868 7.82074 147.719 7.61052 147.509 7.47857C147.299 7.34661 147.045 7.30371 146.804 7.35927L103.846 17.3136Z" fill="#E6E6E6"/>
<path d="M105.108 22.8016C104.988 22.8291 104.875 22.88 104.775 22.9514C104.675 23.0228 104.59 23.1133 104.524 23.2177C104.459 23.3221 104.415 23.4384 104.394 23.56C104.374 23.6816 104.378 23.806 104.405 23.9262C104.432 24.0464 104.483 24.16 104.554 24.2605C104.625 24.361 104.716 24.4464 104.82 24.5119C104.924 24.5774 105.04 24.6217 105.161 24.6422C105.282 24.6627 105.406 24.6591 105.526 24.6315L105.529 24.6308L124.014 20.3474C124.255 20.2918 124.465 20.142 124.597 19.9312C124.729 19.7203 124.771 19.4656 124.716 19.2229C124.661 18.9803 124.512 18.7697 124.302 18.6374C124.092 18.5051 123.838 18.462 123.596 18.5175L123.593 18.5182L105.108 22.8016Z" fill="#E6E6E6"/>
<path d="M92.1019 29.4768C95.2009 29.4768 97.7132 26.9552 97.7132 23.8447C97.7132 20.7342 95.2009 18.2127 92.1019 18.2127C89.0029 18.2127 86.4907 20.7342 86.4907 23.8447C86.4907 26.9552 89.0029 29.4768 92.1019 29.4768Z" fill="#162995"/>
<path d="M91.9442 27.0937C91.7606 27.1365 91.568 27.1183 91.3956 27.0417L91.3848 27.0369L89.127 26.0081C89.0222 25.9604 88.9278 25.8925 88.8491 25.8081C88.7705 25.7238 88.7092 25.6247 88.6687 25.5166C88.6282 25.4084 88.6094 25.2934 88.6133 25.1779C88.6172 25.0624 88.6437 24.9489 88.6914 24.8437C88.739 24.7386 88.8068 24.6439 88.891 24.5651C88.9751 24.4862 89.0739 24.4248 89.1817 24.3844C89.2895 24.3439 89.4042 24.3252 89.5192 24.3292C89.6342 24.3333 89.7473 24.3601 89.852 24.4081L91.3151 25.0766L93.3675 20.55C93.4636 20.338 93.6397 20.1731 93.857 20.0914C94.0742 20.0098 94.3149 20.0181 94.5261 20.1145L94.5137 20.1441L94.5267 20.1144C94.7377 20.2111 94.9019 20.3878 94.9832 20.6059C95.0645 20.824 95.0563 21.0655 94.9604 21.2775L92.5465 26.6024C92.4905 26.7251 92.4072 26.8332 92.3029 26.9183C92.1986 27.0034 92.0761 27.0633 91.9451 27.0933L91.9442 27.0937Z" fill="white"/>
</g>
<defs>
<clipPath id="clip0_65_101">
<rect width="250" height="120" fill="white"/>
</clipPath>
</defs>
</svg>
