<svg width="250" height="152" viewBox="0 0 250 152" fill="none" xmlns="http://www.w3.org/2000/svg">
<g clip-path="url(#clip0_65_482)">
<path d="M197.747 103.423H191.21L191.186 103.4C190.024 102.166 189.501 100.43 189.79 98.7618C189.882 98.2215 190.055 97.6983 190.306 97.2056L192.294 93.3153L191.506 79.3815C191.492 79.1233 191.581 78.8786 191.757 78.6884C191.934 78.5015 192.175 78.3962 192.433 78.3962H193.656C194.159 78.3962 194.567 78.7903 194.587 79.2898L195.121 93.0605L197.873 97.3619C198.107 97.7289 198.298 98.1196 198.434 98.5239C198.974 100.09 198.777 101.792 197.89 103.192L197.744 103.42H197.747V103.423Z" fill="#3F3D56"/>
<path d="M197.183 102.458C197.122 102.557 197.013 102.615 196.898 102.615H191.924C191.829 102.615 191.733 102.574 191.672 102.503C190.833 101.548 190.463 100.294 190.609 99.0744C190.626 98.9418 190.724 98.8297 190.853 98.7957C191.893 98.5205 193.147 98.3642 194.496 98.3642C195.552 98.3642 196.548 98.4628 197.431 98.6361C197.554 98.6598 197.652 98.7482 197.686 98.8671C198.039 100.063 197.873 101.375 197.187 102.458H197.183Z" fill="#6C63FF"/>
<path d="M249.66 106.369H0.339766C0.152895 106.369 0 106.216 0 106.029C0 105.843 0.152895 105.69 0.339766 105.69H249.66C249.847 105.69 250 105.843 250 106.029C250 106.216 249.847 106.369 249.66 106.369Z" fill="#3F3D56"/>
<path d="M73.2026 43.261C69.5501 42.1669 67.1513 39.3944 67.8479 37.0704C68.5444 34.7464 72.0711 33.7475 75.7236 34.8415C77.188 35.2595 78.5335 36.0205 79.6445 37.0636L95.0665 41.8917L92.6474 49.0812L77.7011 43.5566C76.1993 43.8182 74.6568 43.7162 73.2026 43.2576L73.2026 43.261Z" fill="#A0616A"/>
<path d="M141.615 45.15L141.802 57.8471C141.802 57.8471 125.839 57.6365 120.254 58.0748C114.668 58.5165 79.8589 45.7752 79.8589 45.7752L85.6417 37.5767L124.042 46.8455L141.615 45.1467V45.15Z" fill="#E6E6E6"/>
<path d="M74.3408 27.8831H71.9624V60.1609H74.3408V27.8831Z" fill="#6C63FF"/>
<path d="M82.9266 106.029H69.1694L69.1185 105.975C66.6721 103.376 65.5713 99.7267 66.1761 96.2135C66.3698 95.0787 66.7333 93.9779 67.2633 92.9416L71.4493 84.7566L69.7878 55.4348C69.7572 54.8912 69.9475 54.3747 70.3212 53.9806C70.695 53.5865 71.2012 53.369 71.7449 53.369H74.3169C75.3736 53.369 76.2366 54.1946 76.2773 55.2513L77.3952 84.2334L83.1916 93.2847C83.6876 94.0594 84.0852 94.8816 84.374 95.7311C85.5088 99.0268 85.0943 102.608 83.2324 105.554L82.9266 106.033L82.9266 106.029Z" fill="#3F3D56"/>
<path d="M81.7445 104.001C81.6153 104.205 81.3877 104.331 81.1431 104.331H70.6715C70.471 104.331 70.2739 104.246 70.1414 104.096C68.3747 102.085 67.5966 99.4515 67.9024 96.8828C67.9364 96.6008 68.1436 96.3698 68.4188 96.2984C70.6035 95.7208 73.2435 95.3879 76.084 95.3879C78.306 95.3879 80.4058 95.5951 82.2609 95.9587C82.5157 96.0096 82.7264 96.1931 82.7977 96.4412C83.5384 98.9554 83.1885 101.718 81.7445 104.001Z" fill="#6C63FF"/>
<path d="M131.422 27.2036L133.46 41.134L117.151 42.8329L118.171 24.8252L131.422 27.2036Z" fill="#A0616A"/>
<path d="M115.918 31.3521C121.992 31.3521 126.916 26.4281 126.916 20.3539C126.916 14.2798 121.992 9.35568 115.918 9.35568C109.844 9.35568 104.92 14.2798 104.92 20.3539C104.92 26.4281 109.844 31.3521 115.918 31.3521Z" fill="#A0616A"/>
<path d="M81.6493 70.2554C78.5371 67.4625 74.5346 66.8339 72.7067 68.8522C70.8788 70.8704 71.9184 74.7709 75.0307 77.5638C76.2573 78.6986 77.7454 79.514 79.3729 79.9455L92.7087 91.6097L98.2096 85.1168L84.4796 74.3088C83.8816 72.7425 82.9099 71.3528 81.6493 70.2554Z" fill="#A0616A"/>
<path d="M118.171 39.4352L134.819 37.0568L144.673 44.5317L145.692 85.6434L155.205 151.218L92.0088 151.898C92.0088 151.898 96.7655 109.427 99.1439 107.049C101.522 104.67 103.221 93.7978 103.221 93.7978L107.978 46.91L118.171 39.4352Z" fill="#E6E6E6"/>
<path d="M111.885 46.7402C111.885 46.7402 103.051 46.0606 101.013 52.1764C98.974 58.2922 96.5956 78.3384 96.5956 78.3384L91.1594 79.018L86.4026 73.9215L81.3062 86.153C81.3062 86.153 99.3138 105.859 106.109 97.0256C112.904 88.1916 111.885 46.7402 111.885 46.7402Z" fill="#E6E6E6"/>
<path d="M134.649 26.0314C134.649 26.0314 134.649 15.1419 135.669 11.7442C136.688 8.34658 130.912 4.60915 129.213 1.21149C127.514 -2.18618 116.982 2.57055 112.565 3.25008C108.148 3.92962 108.487 6.64775 105.769 11.0647C103.051 15.4817 108.487 22.277 112.565 22.9565C116.642 23.6361 115.283 26.694 118.079 30.0916C120.875 33.4893 129.811 30.0916 129.811 30.0916L130.912 31.7904C130.912 31.7904 128.534 41.3039 132.951 49.4583L144.503 52.5162C141.105 42.3232 144.842 42.3232 146.973 37.0568C149.103 31.7904 134.649 26.0314 134.649 26.0314Z" fill="#2F2E41"/>
<path d="M215.449 103.08H209.395V92.928H215.449C216.139 92.928 216.693 92.3674 216.693 91.6777C216.693 90.9879 216.136 90.4375 215.449 90.4341H173.237C172.547 90.4341 171.993 90.9947 171.993 91.6844C171.993 92.3742 172.55 92.9246 173.237 92.928H178.401V103.08H173.237C172.547 103.08 171.993 103.641 171.993 104.331C171.993 105.02 172.55 105.571 173.237 105.574H215.449C216.139 105.574 216.693 105.013 216.693 104.324C216.693 103.634 216.136 103.084 215.449 103.08ZM180.895 103.08L183.742 95.4966L206.897 92.928V103.08H180.895Z" fill="#F2F2F2"/>
</g>
<defs>
<clipPath id="clip0_65_482">
<rect width="250" height="151.898" fill="white"/>
</clipPath>
</defs>
</svg>
