<svg width="229" height="200" viewBox="0 0 229 200" fill="none" xmlns="http://www.w3.org/2000/svg">
<g clip-path="url(#clip0_65_498)">
<path d="M38.5722 177.459C31.0581 181.51 27.8325 190.109 27.8325 190.109C27.8325 190.109 36.7896 192.14 44.3037 188.088C51.8178 184.036 55.0434 175.437 55.0434 175.437C55.0434 175.437 46.0863 173.407 38.5722 177.459Z" fill="#F2F2F2"/>
<path d="M41.0446 180.243C36.6437 187.558 27.9022 190.376 27.9022 190.376C27.9022 190.376 26.296 181.333 30.697 174.018C35.0979 166.703 43.8394 163.886 43.8394 163.886C43.8394 163.886 45.4456 172.928 41.0446 180.243Z" fill="#F2F2F2"/>
<path d="M180.116 14.0759H153.456V29.8619H180.116V14.0759Z" fill="#2F2E41"/>
<path d="M127.043 16.6213H113.297V11.8281C113.297 10.0052 114.021 8.25709 115.31 6.96817C116.599 5.67925 118.347 4.95515 120.17 4.95515C121.993 4.95515 123.741 5.67925 125.03 6.96817C126.319 8.25709 127.043 10.0052 127.043 11.8281V16.6213ZM113.601 16.317H126.738V11.8281C126.738 10.086 126.046 8.41521 124.814 7.18337C123.583 5.95152 121.912 5.25948 120.17 5.25948C118.428 5.25948 116.757 5.95152 115.525 7.18337C114.293 8.41521 113.601 10.086 113.601 11.8281V16.317Z" fill="#3F3D56"/>
<path d="M133.84 15.9621V14.0888L98.8823 15.0255L97.7759 62.4747L102.949 68.8656L133.84 15.9621Z" fill="#3F3D56"/>
<path d="M140.028 15.3026L102.138 16.1649L102.95 68.8656L139.515 64.9243L140.028 15.3026Z" fill="#162995"/>
<path d="M172.242 186.049H167.941L165.895 169.46H172.242L172.242 186.049Z" fill="#FFB6B6"/>
<path d="M173.339 190.218L159.471 190.217V190.042C159.471 188.61 160.04 187.237 161.052 186.225C162.064 185.213 163.437 184.644 164.869 184.644L173.339 184.644L173.339 190.218Z" fill="#2F2E41"/>
<path d="M156.456 186.049H152.155L150.109 169.46H156.456L156.456 186.049Z" fill="#FFB6B6"/>
<path d="M157.552 190.218L143.685 190.217V190.042C143.685 188.61 144.254 187.237 145.266 186.225C146.278 185.213 147.651 184.644 149.083 184.644L157.553 184.644L157.552 190.218Z" fill="#2F2E41"/>
<path d="M143.825 82.1781C143.825 82.1781 137.542 95.7102 143.219 122.948C148.895 150.186 148.942 180.089 148.942 180.089L157.622 180.231L162.498 115.852L165.051 179.322H173.603L181.14 116.855C181.14 116.855 186.099 88.9621 175.04 83.968L143.825 82.1781Z" fill="#2F2E41"/>
<path d="M173.903 34.4223L154.898 32.6704C148.938 37.0146 145.593 44.8169 146.279 52.8672C147.21 63.7822 146.895 78.8033 139.424 85.329C139.424 85.329 159.788 101.401 177.877 86.1534C177.877 86.1534 171.691 69.5823 175.938 62.9648C180.185 56.3473 181.717 37.7549 173.903 34.4223Z" fill="#E4E4E4"/>
<path d="M117.352 7.45163C117.294 7.99947 117.356 8.55343 117.535 9.07449C117.714 9.59554 118.005 10.071 118.388 10.4674C118.771 10.8638 119.236 11.1715 119.75 11.3688C120.264 11.5662 120.816 11.6483 121.365 11.6094L146.459 35.0281L150.957 28.177L124.876 7.31155C124.75 6.39265 124.29 5.55204 123.586 4.94903C122.881 4.34601 121.979 4.02248 121.052 4.03975C120.124 4.05702 119.236 4.41388 118.554 5.04271C117.872 5.67154 117.444 6.52865 117.352 7.45163Z" fill="#FFB6B6"/>
<path d="M141.773 31.4103L147.726 25.2952C147.895 25.1213 148.1 24.9858 148.327 24.8982C148.553 24.8105 148.796 24.7727 149.038 24.7873C149.281 24.8018 149.517 24.8685 149.731 24.9827C149.946 25.0968 150.133 25.2559 150.28 25.4489L155.441 32.2132C156.326 33.0849 156.83 34.272 156.841 35.5143C156.852 36.7565 156.37 37.9526 155.501 38.8402C154.632 39.7278 153.446 40.2345 152.204 40.2493C150.962 40.2641 149.765 39.7858 148.874 38.9191L141.995 33.9594C141.798 33.8173 141.634 33.6345 141.514 33.4233C141.394 33.2121 141.321 32.9776 141.3 32.7357C141.279 32.4938 141.311 32.2502 141.392 32.0215C141.474 31.7928 141.604 31.5843 141.773 31.4103Z" fill="#E4E4E4"/>
<path d="M210.58 64.4812C210.608 63.931 210.515 63.3814 210.307 62.8711C210.099 62.3608 209.782 61.9022 209.378 61.5277C208.974 61.1531 208.493 60.8717 207.968 60.7033C207.444 60.5348 206.889 60.4835 206.342 60.5528L179.986 38.5645L175.876 45.6549L203.076 65.0391C203.253 65.9496 203.758 66.7634 204.495 67.3263C205.232 67.8892 206.151 68.1622 207.076 68.0934C208.001 68.0246 208.868 67.6189 209.514 66.9532C210.16 66.2875 210.539 65.4079 210.58 64.4812Z" fill="#FFB6B6"/>
<path d="M184.865 41.9163L179.261 48.3527C179.102 48.5358 178.905 48.6824 178.684 48.7826C178.462 48.8827 178.222 48.9339 177.979 48.9328C177.736 48.9317 177.497 48.8783 177.276 48.7762C177.056 48.6741 176.86 48.5257 176.703 48.3412L171.174 41.874C170.241 41.0529 169.673 39.8956 169.592 38.6558C169.512 37.416 169.927 36.1949 170.745 35.2603C171.564 34.3257 172.719 33.7539 173.959 33.6702C175.199 33.5864 176.421 33.9977 177.358 34.8137L184.502 39.3836C184.706 39.5145 184.88 39.6879 185.012 39.8921C185.143 40.0963 185.229 40.3264 185.264 40.5667C185.298 40.8071 185.28 41.0521 185.212 41.2849C185.143 41.5178 185.025 41.7332 184.865 41.9163Z" fill="#E4E4E4"/>
<path d="M213.258 73.7788H202.846V70.148C202.846 68.7673 203.394 67.4431 204.371 66.4668C205.347 65.4904 206.671 64.942 208.052 64.942C209.432 64.942 210.757 65.4904 211.733 66.4668C212.709 67.4431 213.258 68.7673 213.258 70.148L213.258 73.7788ZM203.076 73.5483H213.027V70.148C213.027 68.8284 212.503 67.5629 211.57 66.6298C210.637 65.6967 209.371 65.1725 208.052 65.1725C206.732 65.1725 205.467 65.6967 204.534 66.6298C203.6 67.5629 203.076 68.8284 203.076 70.148V73.5483Z" fill="#3F3D56"/>
<path d="M218.406 73.2793V71.8604L191.927 72.57L191.089 108.511L195.008 113.352L218.406 73.2793Z" fill="#3F3D56"/>
<path d="M223.093 72.7798L194.393 73.433L195.008 113.352L222.705 110.367L223.093 72.7798Z" fill="#162995"/>
<path d="M165.734 29.5112C171.934 29.5112 176.96 24.4853 176.96 18.2855C176.96 12.0858 171.934 7.05994 165.734 7.05994C159.534 7.05994 154.508 12.0858 154.508 18.2855C154.508 24.4853 159.534 29.5112 165.734 29.5112Z" fill="#FFB6B6"/>
<path d="M160.565 13.2825C164.449 17.0881 171.207 17.4529 175.477 14.0873C176.662 18.1753 176.792 22.4969 175.854 26.6486C174.916 30.8003 172.941 34.6466 170.114 37.8281C172.489 38.6864 175.224 38.1217 177.347 36.7536C179.471 35.3856 181.043 33.2968 182.23 31.067C185.167 25.5473 185.903 18.8075 183.824 12.9103C181.746 7.01311 176.768 2.1231 170.719 0.539679C164.67 -1.04374 157.734 0.912177 153.693 5.68333C149.467 10.6725 148.782 17.9828 150.634 24.2534C152.486 30.524 156.548 35.909 161.011 40.6875C158.867 35.1756 157.446 29.4095 156.782 23.5328C156.555 21.5202 156.422 19.4456 156.991 17.5016C157.559 15.5577 158.959 13.7469 160.909 13.2007" fill="#2F2E41"/>
<path d="M228.371 190.879H94.716C94.623 190.879 94.5338 190.842 94.468 190.776C94.4022 190.711 94.3652 190.621 94.3652 190.528C94.3652 190.435 94.4022 190.346 94.468 190.28C94.5338 190.215 94.623 190.178 94.716 190.178H228.371C228.464 190.178 228.553 190.215 228.619 190.28C228.685 190.346 228.722 190.435 228.722 190.528C228.722 190.621 228.685 190.711 228.619 190.776C228.553 190.842 228.464 190.879 228.371 190.879Z" fill="#CACACA"/>
<path d="M57.1804 190.879H0.3508C0.257762 190.879 0.16854 190.842 0.102752 190.776C0.0369643 190.711 0 190.621 0 190.528C0 190.435 0.0369643 190.346 0.102752 190.28C0.16854 190.215 0.257762 190.178 0.3508 190.178H57.1804C57.2735 190.178 57.3627 190.215 57.4285 190.28C57.4943 190.346 57.5312 190.435 57.5312 190.528C57.5312 190.621 57.4943 190.711 57.4285 190.776C57.3627 190.842 57.2735 190.879 57.1804 190.879Z" fill="#CACACA"/>
<path d="M207.645 160.426H197.233V156.796C197.233 155.415 197.781 154.091 198.758 153.114C199.734 152.138 201.058 151.59 202.439 151.59C203.82 151.59 205.144 152.138 206.12 153.114C207.097 154.091 207.645 155.415 207.645 156.796L207.645 160.426ZM197.463 160.196H207.414V156.796C207.414 155.476 206.89 154.21 205.957 153.277C205.024 152.344 203.759 151.82 202.439 151.82C201.119 151.82 199.854 152.344 198.921 153.277C197.988 154.21 197.463 155.476 197.463 156.796V160.196Z" fill="#CACACA"/>
<path d="M212.793 159.927V158.508L186.314 159.218L185.476 195.159L189.395 200L212.793 159.927Z" fill="#CACACA"/>
<path d="M217.481 159.427L188.78 160.081L189.395 200L217.092 197.015L217.481 159.427Z" fill="#E4E4E4"/>
</g>
<defs>
<clipPath id="clip0_65_498">
<rect width="228.722" height="200" fill="white"/>
</clipPath>
</defs>
</svg>
