<svg width="250" height="163" viewBox="0 0 250 163" fill="none" xmlns="http://www.w3.org/2000/svg">
<g clip-path="url(#clip0_65_525)">
<path d="M7.92325 124.415C9.1622 111.769 16.6505 99.1451 28.5652 94.7295C24.1625 107.828 24.5346 122.061 29.6157 134.911C31.5933 139.859 34.308 145.158 32.7017 150.239C31.7023 153.401 29.12 155.867 26.2028 157.443C23.2853 159.019 20.0228 159.819 16.801 160.604L16.1771 161.148C10.7307 149.668 6.6843 137.061 7.92325 124.415Z" fill="#F0F0F0"/>
<path d="M28.6907 94.9647C21.9635 102.905 17.7294 113.046 16.9891 123.442C16.829 125.69 16.8623 127.984 17.41 130.181C17.9603 132.318 19.0729 134.269 20.6323 135.831C22.057 137.317 23.6863 138.671 24.725 140.477C25.8199 142.381 25.9173 144.574 25.2557 146.643C24.4461 149.176 22.775 151.266 21.0698 153.254C19.1764 155.46 17.1748 157.722 16.4206 160.602C16.3292 160.951 15.7932 160.789 15.8844 160.44C17.1966 155.43 21.95 152.48 24.1352 147.941C25.1549 145.823 25.5425 143.385 24.478 141.205C23.5471 139.299 21.8681 137.901 20.4126 136.409C18.8843 134.843 17.6986 133.111 17.0561 131.002C16.3988 128.843 16.2758 126.546 16.3776 124.304C16.6466 119.222 17.7129 114.214 19.5376 109.463C21.5899 104.03 24.5567 98.9876 28.3094 94.5545C28.5417 94.2803 28.9216 94.6923 28.6907 94.9647Z" fill="white"/>
<path d="M17.0516 120.05C15.3107 119.675 13.7598 118.694 12.6758 117.281C11.5917 115.868 11.0452 114.116 11.1338 112.337C11.1381 112.265 11.1703 112.197 11.2238 112.147C11.2772 112.098 11.3477 112.072 11.4203 112.073C11.4929 112.075 11.562 112.105 11.613 112.157C11.664 112.208 11.693 112.278 11.6938 112.351C11.6083 114.007 12.1175 115.639 13.1296 116.952C14.1418 118.266 15.5901 119.174 17.2133 119.514C17.5659 119.588 17.4022 120.124 17.0516 120.05Z" fill="white"/>
<path d="M19.8106 135.173C22.8865 133.226 25.1154 130.191 26.0531 126.673C26.1457 126.325 26.6818 126.487 26.5893 126.835C25.6067 130.494 23.2807 133.647 20.0754 135.666C19.7698 135.859 19.5066 135.364 19.8106 135.173Z" fill="white"/>
<path d="M22.1234 104.547C22.7667 104.832 23.4709 104.953 24.1727 104.899C24.8744 104.845 25.5518 104.618 26.1439 104.237C26.447 104.041 26.7098 104.536 26.4088 104.731C25.7526 105.148 25.0042 105.398 24.229 105.46C23.4538 105.521 22.6754 105.392 21.9617 105.083C21.892 105.059 21.8338 105.01 21.7991 104.946C21.7643 104.881 21.7555 104.805 21.7744 104.734C21.7962 104.663 21.8451 104.604 21.9104 104.569C21.9757 104.534 22.0523 104.526 22.1234 104.547Z" fill="white"/>
<path d="M65.796 116.289C65.6102 116.417 65.4245 116.544 65.2386 116.677C62.7503 118.408 60.4066 120.338 58.2308 122.448C58.06 122.609 57.8893 122.774 57.7235 122.939C52.5357 128.079 48.3473 134.138 45.3713 140.807C44.1895 143.462 43.2114 146.203 42.4455 149.007C41.388 152.878 40.5494 157.16 38.3396 160.362C38.1128 160.699 37.8654 161.021 37.5988 161.327L16.8892 161.867C16.8415 161.845 16.7937 161.827 16.7458 161.804L15.9199 161.864C15.9493 161.716 15.983 161.564 16.0124 161.417C16.0291 161.331 16.0504 161.246 16.0671 161.16C16.0797 161.103 16.0925 161.046 16.1006 160.994C16.1048 160.975 16.1091 160.956 16.1134 160.942C16.1215 160.889 16.1345 160.842 16.1428 160.794C16.3286 159.943 16.5207 159.092 16.7191 158.24C16.719 158.235 16.719 158.235 16.7235 158.231C18.252 151.746 20.3353 145.332 23.3258 139.439C23.4158 139.262 23.5055 139.08 23.605 138.902C24.9678 136.253 26.5447 133.72 28.3202 131.327C29.2966 130.021 30.3385 128.764 31.4419 127.563C34.2991 124.464 37.6258 121.834 41.3002 119.769C48.6257 115.654 57.1858 113.927 65.1864 116.116C65.391 116.172 65.5912 116.228 65.796 116.289Z" fill="#F0F0F0"/>
<path d="M65.7562 116.553C55.6043 118.842 46.1181 124.39 39.2679 132.245C37.7869 133.943 36.4323 135.795 35.5468 137.879C34.6994 139.917 34.4131 142.144 34.7177 144.33C34.9608 146.374 35.4461 148.437 35.1882 150.504C34.9162 152.684 33.6737 154.493 31.8994 155.747C29.7284 157.282 27.1355 157.945 24.5774 158.505C21.7371 159.127 18.777 159.728 16.4411 161.573C16.158 161.797 15.8277 161.344 16.1103 161.121C20.1745 157.911 25.7461 158.417 30.2235 156.109C32.3128 155.032 34.0901 153.318 34.5525 150.937C34.9569 148.855 34.4582 146.727 34.1942 144.66C33.9169 142.489 34.0127 140.393 34.7699 138.321C35.5444 136.202 36.8295 134.294 38.2606 132.565C41.535 128.67 45.4016 125.313 49.7187 122.618C54.6287 119.516 60.0333 117.276 65.6987 115.996C66.0494 115.917 66.1046 116.474 65.7562 116.553Z" fill="white"/>
<path d="M41.3601 129.574C40.1958 128.227 39.5484 126.509 39.5335 124.729C39.5186 122.948 40.1371 121.22 41.2787 119.853C41.5106 119.577 41.9501 119.925 41.7178 120.201C40.6524 121.472 40.0764 123.082 40.0937 124.74C40.1109 126.398 40.7204 127.995 41.812 129.244C42.0489 129.515 41.5956 129.844 41.3601 129.574Z" fill="white"/>
<path d="M34.4579 143.31C38.0861 143.608 41.693 142.526 44.5594 140.282C44.8432 140.06 45.1736 140.512 44.8902 140.734C41.9029 143.064 38.1471 144.181 34.3723 143.864C34.0125 143.833 34.1001 143.28 34.4579 143.31Z" fill="white"/>
<path d="M54.7436 120.249C55.0855 120.865 55.5748 121.385 56.1676 121.765C56.7604 122.144 57.4382 122.37 58.1401 122.423C58.5001 122.449 58.4121 123.002 58.0544 122.976C57.2793 122.915 56.531 122.664 55.8751 122.246C55.2192 121.828 54.6756 121.256 54.2917 120.58C54.2502 120.519 54.2334 120.445 54.2446 120.373C54.2559 120.3 54.2944 120.234 54.3523 120.189C54.4124 120.145 54.4871 120.127 54.5604 120.139C54.6337 120.15 54.6995 120.19 54.7436 120.249Z" fill="white"/>
<path d="M187.343 11.0956C187.034 10.1826 183.156 7.07902 185.532 6.55737L187.481 9.15549L196.439 0.197243L197.34 1.09824L187.343 11.0956Z" fill="#352BE3"/>
<path d="M187.343 41.5574C187.034 40.6444 183.156 37.5408 185.532 37.0192L187.481 39.6173L196.439 30.6591L197.34 31.5601L187.343 41.5574Z" fill="#352BE3"/>
<path d="M187.343 72.4544C187.034 71.5414 183.156 68.4378 185.532 67.9162L187.481 70.5143L196.439 61.556L197.34 62.457L187.343 72.4544Z" fill="#352BE3"/>
<path d="M179.093 47.475C180.62 47.475 181.858 46.2373 181.858 44.7106C181.858 43.1839 180.62 41.9462 179.093 41.9462C177.567 41.9462 176.329 43.1839 176.329 44.7106C176.329 46.2373 177.567 47.475 179.093 47.475Z" fill="#3F3D56"/>
<path d="M179.093 17.3432C180.62 17.3432 181.858 16.1056 181.858 14.5789C181.858 13.0521 180.62 11.8145 179.093 11.8145C177.567 11.8145 176.329 13.0521 176.329 14.5789C176.329 16.1056 177.567 17.3432 179.093 17.3432Z" fill="#3F3D56"/>
<path d="M250 8.22077H205.494V8.77365H250V8.22077Z" fill="#3F3D56"/>
<path d="M180.476 79.5954C182.003 79.5954 183.24 78.3578 183.24 76.8311C183.24 75.3043 182.003 74.0667 180.476 74.0667C178.949 74.0667 177.711 75.3043 177.711 76.8311C177.711 78.3578 178.949 79.5954 180.476 79.5954Z" fill="#3F3D56"/>
<path d="M250 38.6825H205.494V39.2354H250V38.6825Z" fill="#3F3D56"/>
<path d="M250 69.5795H205.494V70.1324H250V69.5795Z" fill="#3F3D56"/>
<path d="M194.325 76.5734H180.503V62.475H189.902V63.0279H181.056V76.0205H193.772V69.6624H194.325V76.5734Z" fill="#3F3D56"/>
<path d="M194.325 45.6123H180.503V31.5139H189.902V32.0668H181.056V45.0594H193.772V38.7013H194.325V45.6123Z" fill="#3F3D56"/>
<path d="M194.325 14.0983H180.503V0H189.902V0.552876H181.056V13.5455H193.772V7.18739H194.325V14.0983Z" fill="#3F3D56"/>
<path d="M104.08 50.2486C104.08 50.2486 100.386 65.8456 104.901 65.8456C109.416 65.8456 120.088 48.1964 120.088 48.1964L116.394 43.6815L109.763 52.8868L109.416 48.1964L104.08 50.2486Z" fill="#A0616A"/>
<path d="M119.103 48.8744C121.088 48.8744 122.697 47.2655 122.697 45.2807C122.697 43.296 121.088 41.687 119.103 41.687C117.119 41.687 115.51 43.296 115.51 45.2807C115.51 47.2655 117.119 48.8744 119.103 48.8744Z" fill="#A0616A"/>
<path d="M100.948 156.477L105.732 156.477L108.007 138.026L100.947 138.026L100.948 156.477Z" fill="#A0616A"/>
<path d="M100.78 161.467L115.49 161.467V161.281C115.489 159.762 114.886 158.306 113.812 157.232C112.739 156.159 111.282 155.555 109.764 155.555H109.764L107.077 153.517L102.063 155.556L100.779 155.556L100.78 161.467Z" fill="#2F2E41"/>
<path d="M49.4932 150.509L53.7733 152.645L64.049 137.152L57.7319 134L49.4932 150.509Z" fill="#A0616A"/>
<path d="M47.1138 154.899L60.2759 161.467L60.3589 161.301C61.0369 159.942 61.1475 158.37 60.6663 156.93C60.185 155.489 59.1514 154.299 57.7928 153.621L57.7925 153.621L56.2986 150.597L50.9025 150.183L49.7535 149.609L47.1138 154.899Z" fill="#2F2E41"/>
<path d="M157.528 161.485H0V162.105H157.528V161.485Z" fill="#CCCCCC"/>
<path d="M70.0212 78.5438C70.0212 78.5438 68.1096 101.529 67.6991 106.455C67.4177 109.542 66.7276 112.579 65.6469 115.484C65.6469 115.484 64.826 117.126 64.826 118.768L55.5225 135.676C55.5225 135.676 52.6796 137.766 53.09 139.407C53.5005 141.049 51.376 142.034 51.376 142.034L61.1734 143.922C61.1734 143.922 60.7629 142.691 61.9943 142.281C63.2256 141.87 64.2058 138.31 64.2058 138.31L77.9603 115.895L87.811 95.3725C87.811 95.3725 93.5573 113.843 94.7886 115.895C94.7886 115.895 99.3035 138.88 100.124 140.932C100.945 142.984 101.356 142.984 100.945 143.805C100.535 144.626 100.535 145.447 100.945 145.857C101.356 146.268 109.154 145.857 109.154 145.857L107.102 116.716L103.408 81.8277L84.5274 76.0815L70.0212 78.5438Z" fill="#2F2E41"/>
<path d="M88.5066 23.6719C93.2669 23.6719 97.126 19.8128 97.126 15.0525C97.126 10.2921 93.2669 6.43311 88.5066 6.43311C83.7462 6.43311 79.8872 10.2921 79.8872 15.0525C79.8872 19.8128 83.7462 23.6719 88.5066 23.6719Z" fill="#A0616A"/>
<path d="M104.229 36.2682L93.9679 30.0515C93.9679 30.0515 93.6835 26.1911 90.7599 26.0094C89.2922 25.9182 87.0895 25.7788 83.7841 25.5657C83.0856 25.5206 82.6142 29.3424 81.8136 29.2906L70.9825 32.1637L72.6243 60.0741C72.6243 60.0741 70.1617 71.1561 70.9825 73.2084C71.8034 75.2606 68.9303 76.0815 69.7512 76.4919C70.5721 76.9024 69.7512 79.7755 69.7512 79.7755C69.7512 79.7755 85.7586 87.9844 103.408 81.8277L101.766 76.4919C101.989 75.7944 102.031 75.0515 101.888 74.3333C101.744 73.6151 101.42 72.9454 100.945 72.3875C100.945 72.3875 102.587 69.9248 100.535 67.8725C100.535 67.8725 101.356 64.1785 99.3033 62.5367L98.8929 56.7905L100.124 53.9174L104.229 36.2682Z" fill="#E6E6E6"/>
<path d="M81.0271 19.9765L80.7862 19.4169C80.7551 19.3445 77.7069 12.1385 80.4088 7.69364C81.6595 5.63588 83.9338 4.4741 87.1681 4.24086C92.2289 3.87493 95.6926 5.07543 97.4657 7.80648C97.763 8.26934 97.9301 8.80375 97.9495 9.35353C97.9688 9.9033 97.8397 10.4481 97.5756 10.9307C97.3115 11.4133 96.9223 11.8159 96.4489 12.096C95.9755 12.3762 95.4353 12.5236 94.8852 12.5228H94.8172L93.8873 11.3154L93.8332 11.4328C93.4965 12.1612 92.7234 12.5599 91.8178 12.4726C91.6638 12.4615 91.5273 12.5945 91.4177 12.879C91.3808 13.0035 91.3111 13.1157 91.2159 13.204C91.1207 13.2922 91.0035 13.3532 90.8766 13.3805C90.2075 13.5107 89.2537 12.6679 88.8268 12.2479C88.8103 12.3445 88.7733 12.4365 88.7182 12.5177C88.6631 12.5988 88.5912 12.6672 88.5074 12.7181C88.0575 12.9777 87.3574 12.6386 87.1564 12.5306C85.5554 12.8708 84.519 12.7798 84.0751 12.2605C83.7741 14.3901 83.1281 18.2233 82.3534 18.4357C82.2725 18.4543 82.1877 18.4464 82.1115 18.4132C82.0354 18.3799 81.972 18.323 81.9307 18.2509C81.7441 18.0088 81.5774 17.8881 81.4734 17.922C81.2214 18.0022 81.0726 18.832 81.0513 19.3676L81.0271 19.9765Z" fill="#2F2E41"/>
<path d="M99.7141 36.6786L103.808 36.0134C106.758 38.8473 108.767 42.5177 109.565 46.5293C110.796 53.0965 111.207 54.3278 111.207 54.3278L101.356 56.7905L96.02 46.5293L99.7141 36.6786Z" fill="#E6E6E6"/>
<path d="M81.5459 45.2205L79.0156 77.2967L143.587 82.3903L146.118 50.3141L81.5459 45.2205Z" fill="white"/>
<path d="M88.4442 47.7056C86.864 46.5771 84.8577 46.4955 84.0913 46.5118C84.3251 47.2416 85.0518 49.1135 86.6319 50.2424C88.216 51.3737 90.2198 51.4528 90.9851 51.437C90.7513 50.7075 90.0246 48.8348 88.4442 47.7056Z" fill="#352BE3"/>
<path d="M94.6782 68.1164L84.3098 67.2985C84.0034 67.2743 83.6953 67.3107 83.403 67.4056C83.1108 67.5005 82.84 67.6521 82.6063 67.8516C82.3726 68.0512 82.1805 68.2948 82.0409 68.5686C81.9013 68.8424 81.8171 69.141 81.7929 69.4473C81.7687 69.7537 81.8051 70.0618 81.9 70.3541C81.995 70.6464 82.1465 70.9171 82.3461 71.1508C82.5456 71.3845 82.7892 71.5767 83.063 71.7162C83.3368 71.8558 83.6354 71.9401 83.9417 71.9642L94.3101 72.7821C94.9288 72.8309 95.5416 72.6319 96.0136 72.229C96.4856 71.826 96.7782 71.252 96.827 70.6333C96.8758 70.0145 96.6769 69.4018 96.2739 68.9298C95.8709 68.4578 95.2969 68.1652 94.6782 68.1164Z" fill="#352BE3"/>
<path d="M143.572 47.1963L85.4395 42.6101C84.7634 42.5569 84.0833 42.6373 83.4383 42.8469C82.7932 43.0565 82.1958 43.391 81.68 43.8315C81.1643 44.272 80.7403 44.8097 80.4324 45.4141C80.1245 46.0184 79.9386 46.6774 79.8854 47.3536L77.6497 75.6749C77.5423 77.0408 77.9816 78.3935 78.8713 79.4355C79.7609 80.4775 81.028 81.1236 82.3938 81.2317L140.526 85.8178C141.202 85.871 141.882 85.7906 142.527 85.581C143.172 85.3714 143.77 85.0369 144.285 84.5964C144.801 84.1559 145.225 83.6182 145.533 83.0139C145.841 82.4096 146.027 81.7505 146.08 81.0744L148.205 54.1561L148.247 53.6061L148.315 52.7504C148.368 52.0742 148.288 51.3942 148.078 50.7491C147.869 50.1041 147.534 49.5066 147.094 48.9909C146.653 48.4751 146.116 48.0512 145.511 47.7433C144.907 47.4353 144.248 47.2495 143.572 47.1963ZM141.855 71.8373L141.487 76.5032C141.419 77.3273 141.029 78.0912 140.4 78.6279C139.771 79.1646 138.955 79.4305 138.13 79.3674L130.353 78.7546C129.529 78.6872 128.765 78.2964 128.228 77.6674C127.692 77.0384 127.426 76.2226 127.489 75.3982L127.857 70.7323C127.925 69.9083 128.316 69.1446 128.945 68.6079C129.574 68.0713 130.389 67.8053 131.214 67.8681L138.988 68.4816C139.812 68.5492 140.576 68.94 141.113 69.5687C141.65 70.1973 141.917 71.0128 141.855 71.8373ZM81.2782 69.4044C81.3386 68.6494 81.6959 67.9491 82.2719 67.4572C82.8479 66.9654 83.5955 66.7221 84.3506 66.7807L94.7186 67.5991C95.0931 67.6281 95.4583 67.7305 95.7932 67.9006C96.1281 68.0707 96.4263 68.3052 96.6705 68.5905C96.9148 68.8759 97.1004 69.2066 97.2168 69.5638C97.3332 69.9209 97.3781 70.2975 97.3489 70.6721C97.3197 71.0466 97.217 71.4116 97.0466 71.7464C96.8762 72.0812 96.6415 72.3791 96.3559 72.6232C96.0704 72.8672 95.7395 73.0526 95.3823 73.1687C95.025 73.2848 94.6484 73.3294 94.2739 73.2999L94.2685 73.3012L83.9006 72.4828C83.5261 72.4532 83.1612 72.3501 82.8266 72.1793C82.4921 72.0085 82.1945 71.7734 81.9509 71.4874C81.7074 71.2015 81.5226 70.8703 81.4071 70.5129C81.2917 70.1555 81.2479 69.7788 81.2782 69.4044ZM83.4978 46.3268L83.4269 46.0368L83.7252 46.0095C83.8418 45.9969 86.5998 45.7493 88.7467 47.2829C90.8936 48.8165 91.5519 51.5071 91.5805 51.6197L91.6487 51.9103L91.3511 51.9404C90.9287 51.9718 90.5045 51.969 90.0826 51.932C88.7404 51.8534 87.4439 51.4156 86.3289 50.6643C84.1821 49.1307 83.5237 46.44 83.4978 46.3268Z" fill="#352BE3"/>
<path d="M133.133 74.9317L129.764 74.6659C129.523 74.6474 129.285 74.725 129.102 74.8817C128.919 75.0384 128.805 75.2614 128.787 75.5017C128.768 75.7421 128.845 75.9801 129.001 76.1636C129.157 76.3471 129.38 76.461 129.621 76.4804L132.99 76.7462C133.231 76.7648 133.469 76.6872 133.652 76.5305C133.835 76.3738 133.949 76.1508 133.967 75.9104C133.986 75.6701 133.909 75.432 133.753 75.2485C133.596 75.0651 133.374 74.9511 133.133 74.9317Z" fill="#352BE3"/>
<path d="M139.354 75.4225L135.985 75.1567C135.744 75.1383 135.507 75.216 135.324 75.3727C135.141 75.5294 135.027 75.7523 135.008 75.9925C134.989 76.2327 135.066 76.4707 135.223 76.6541C135.379 76.8376 135.601 76.9516 135.842 76.9711L139.211 77.2369C139.452 77.2553 139.689 77.1776 139.872 77.0209C140.055 76.8642 140.169 76.6413 140.188 76.4011C140.207 76.1609 140.13 75.9229 139.973 75.7395C139.817 75.556 139.595 75.442 139.354 75.4225Z" fill="#352BE3"/>
<path d="M133.317 72.5989L129.948 72.3331C129.707 72.3147 129.47 72.3924 129.287 72.5491C129.103 72.7058 128.99 72.9287 128.971 73.1689C128.952 73.4091 129.029 73.6471 129.185 73.8305C129.342 74.014 129.564 74.128 129.805 74.1475L133.174 74.4133C133.415 74.4319 133.653 74.3543 133.836 74.1976C134.019 74.0409 134.132 73.8179 134.151 73.5775C134.17 73.3372 134.093 73.0992 133.937 72.9157C133.78 72.7322 133.558 72.6183 133.317 72.5989Z" fill="#352BE3"/>
<path d="M139.539 73.0896L136.169 72.8238C135.929 72.8053 135.691 72.8829 135.507 73.0396C135.324 73.1963 135.211 73.4193 135.192 73.6596C135.173 73.8999 135.25 74.138 135.406 74.3214C135.563 74.5049 135.786 74.6189 136.026 74.6383L139.396 74.9041C139.636 74.9226 139.874 74.845 140.057 74.6883C140.24 74.5316 140.354 74.3086 140.373 74.0683C140.392 73.8279 140.315 73.5899 140.158 73.4064C140.002 73.2229 139.779 73.109 139.539 73.0896Z" fill="#352BE3"/>
<path d="M133.502 70.266L130.132 70.0002C129.892 69.9816 129.654 70.0592 129.47 70.2159C129.287 70.3726 129.174 70.5956 129.155 70.836C129.136 71.0763 129.213 71.3143 129.369 71.4978C129.526 71.6813 129.748 71.7953 129.989 71.8146L133.358 72.0804C133.599 72.0988 133.837 72.0211 134.02 71.8644C134.203 71.7077 134.316 71.4848 134.335 71.2446C134.354 71.0044 134.277 70.7664 134.121 70.583C133.964 70.3995 133.742 70.2855 133.502 70.266Z" fill="#352BE3"/>
<path d="M139.723 70.7567L136.353 70.4909C136.113 70.4725 135.875 70.5502 135.692 70.7069C135.509 70.8636 135.395 71.0865 135.376 71.3267C135.357 71.567 135.435 71.8049 135.591 71.9884C135.747 72.1718 135.97 72.2858 136.21 72.3054L139.58 72.5712C139.82 72.5895 140.058 72.5119 140.241 72.3552C140.424 72.1985 140.537 71.9756 140.556 71.7353C140.575 71.4951 140.498 71.2572 140.342 71.0737C140.185 70.8903 139.963 70.7763 139.723 70.7567Z" fill="#352BE3"/>
<path d="M79.0213 56.2897L78.978 56.8411L147.218 62.2017L147.261 61.6503L79.0213 56.2897Z" fill="white"/>
<path d="M148.248 53.606L148.205 54.1562L145.83 53.9698L120.527 51.9822L120.572 51.4316L145.873 53.4197L148.248 53.606Z" fill="#3F3D56"/>
<path d="M64.826 47.7607C64.826 47.7607 61.132 63.3576 65.6469 63.3576C70.1618 63.3576 80.8334 45.7084 80.8334 45.7084L77.1394 41.1935L70.509 50.3989L70.1617 45.7084L64.826 47.7607Z" fill="#A0616A"/>
<path d="M79.8491 46.3865C81.8338 46.3865 83.4428 44.7775 83.4428 42.7928C83.4428 40.808 81.8338 39.1991 79.8491 39.1991C77.8643 39.1991 76.2554 40.808 76.2554 42.7928C76.2554 44.7775 77.8643 46.3865 79.8491 46.3865Z" fill="#A0616A"/>
<path d="M73.9726 34.6264L71.5099 32.1637C71.5099 32.1637 66.5845 35.0368 66.1741 37.91C65.7637 40.7831 63.7114 49.8129 63.7114 49.8129L71.3047 50.4286L73.7674 46.7346L73.9726 34.6264Z" fill="#E6E6E6"/>
</g>
<defs>
<clipPath id="clip0_65_525">
<rect width="250" height="162.105" fill="white"/>
</clipPath>
</defs>
</svg>
