<svg width="250" height="185" viewBox="0 0 250 185" fill="none" xmlns="http://www.w3.org/2000/svg">
<g clip-path="url(#clip0_65_575)">
<path d="M106.574 125.193C106.574 125.193 139.774 121.209 151.394 114.901C163.014 108.593 249.336 105.605 249.336 125.193C249.336 144.782 150.066 153.414 150.066 153.414L97.9414 150.426L106.574 125.193Z" fill="#FBBEBE"/>
<path opacity="0.1" d="M106.574 125.193C106.574 125.193 139.774 121.209 151.394 114.901C163.014 108.593 249.336 105.605 249.336 125.193C249.336 144.782 150.066 153.414 150.066 153.414L97.9414 150.426L106.574 125.193Z" fill="black"/>
<path d="M116.202 121.541L109.23 141.794L0 143.122V113.241C0 113.241 41.8327 103.613 75.0332 124.197C75.0332 124.197 114.21 119.549 116.202 121.541Z" fill="#162995"/>
<path opacity="0.1" d="M116.202 121.509L109.23 141.761L0 143.089V113.208C0 113.208 41.8327 103.58 75.0332 124.165C75.0332 124.165 114.21 119.517 116.202 121.509Z" fill="black"/>
<path d="M241.085 113.075C241.085 114.207 238.547 115.047 238.298 116.138C238.05 117.221 239.558 118.867 239.081 119.901C238.588 120.958 238.005 121.972 237.34 122.93C236.715 123.824 234.784 123.694 233.992 124.533C233.217 125.295 232.396 126.009 231.534 126.671C230.694 127.369 229.556 127.516 228.601 128.159C227.693 128.77 227.803 131.013 226.798 131.57C225.838 132.102 224.369 131.674 223.327 132.152C222.328 132.611 221.801 134.272 220.732 134.678C219.702 135.069 218.426 134.901 217.337 135.24C216.282 135.568 215.102 135.515 213.997 135.791C212.924 136.059 212.105 137.668 210.989 137.885C209.901 138.096 208.627 137.532 207.503 137.692C206.404 137.849 205.127 136.459 203.998 136.564C202.892 136.667 201.85 137.31 200.718 137.362C199.608 137.413 198.51 137.902 197.377 137.902C196.245 137.902 195.076 138.965 193.966 138.914C192.834 138.862 191.809 137.252 190.703 137.149C189.573 137.043 188.226 138.725 187.128 138.569C186.003 138.409 185.113 136.763 184.025 136.551C182.909 136.335 181.467 137.511 180.394 137.243C179.289 136.966 178.633 135.051 177.578 134.723C176.489 134.384 175.138 134.843 174.108 134.451C173.039 134.045 171.737 134.111 170.737 133.651C169.696 133.173 168.949 132.041 167.989 131.509C166.984 130.953 166.521 129.572 165.613 128.96C164.657 128.317 163.202 128.399 162.362 127.7C161.475 126.963 159.814 126.924 159.065 126.131C158.274 125.292 157.953 123.882 157.328 122.987C156.67 122.045 157.962 120.052 157.503 119.056C157.026 118.022 155.032 117.602 154.785 116.52C154.529 115.389 154.398 114.234 154.394 113.075C154.394 111.944 156.099 111.079 156.349 109.987C156.596 108.905 155.341 107.35 155.818 106.316C156.278 105.319 156.219 103.788 156.877 102.845C157.502 101.95 159.062 101.599 159.854 100.76C160.602 99.9668 161.942 99.7454 162.828 99.0079C163.668 98.3094 163.561 96.2028 164.517 95.5597C165.425 94.9483 166.693 94.6693 167.697 94.1125C168.657 93.5805 170.016 93.6701 171.057 93.1918C172.057 92.7328 173.622 93.6373 174.691 93.2313C175.721 92.8398 176.557 91.984 177.647 91.6448C178.701 91.3166 179.197 88.8133 180.301 88.537C181.374 88.2686 182.695 88.7141 183.811 88.4972C184.898 88.2859 186.361 90.2609 187.486 90.1009C188.584 89.9447 189.405 87.3081 190.535 87.2029C191.641 87.1 192.887 88.4655 194.02 88.4135C195.13 88.3626 196.245 89.1627 197.377 89.1627C198.51 89.1627 199.638 88.0646 200.748 88.1155C201.88 88.1675 202.879 89.6187 203.984 89.7216C205.114 89.8268 206.501 87.6195 207.599 87.7758C208.724 87.9358 209.592 89.6421 210.68 89.8534C211.796 90.0703 213.195 89.0109 214.268 89.2793C215.373 89.5557 216.038 91.3692 217.092 91.6975C218.182 92.0367 218.853 93.3161 219.884 93.7077C220.952 94.1138 222.937 92.2138 223.937 92.6729C224.978 93.1512 225.878 93.9789 226.838 94.511C227.842 95.0678 229.44 94.7878 230.348 95.3992C231.303 96.0424 231.538 97.7688 232.378 98.4674C233.265 99.205 234.727 99.427 235.476 100.221C236.267 101.06 236.377 102.564 237.002 103.459C237.66 104.401 237.64 105.707 238.099 106.703C238.576 107.737 239.849 108.519 240.097 109.602C240.346 110.693 241.085 111.944 241.085 113.075Z" fill="#3F3D56"/>
<path d="M121.514 133.825C121.514 133.825 159.031 114.569 183.267 121.873C207.503 129.177 241.368 116.561 245.352 120.877C249.336 125.193 254.98 171.674 207.171 174.33C159.363 176.986 118.526 166.362 118.526 166.362L121.514 133.825Z" fill="#FBBEBE"/>
<path d="M112.679 131.775C112.679 131.775 127.49 130.837 126.826 136.149C126.162 141.462 125.498 182.63 121.514 183.626C117.53 184.622 85.9894 184.622 73.0412 184.622H0V120.973C0 120.973 51.7928 117.889 77.6892 130.837C77.6892 130.837 108.824 130.388 112.679 131.775Z" fill="#162995"/>
<path d="M182.065 32.2176C180.65 32.2975 179.285 32.7701 178.123 33.5824C176.962 34.3946 176.049 35.5144 175.488 36.8162C173.844 40.7916 175.961 45.4612 179.14 48.3601C182.319 51.259 186.402 52.916 190.112 55.0939C195.096 58.0193 199.573 62.0803 202.067 67.2931C204.56 72.5059 204.825 78.9631 201.894 83.9431C199.174 88.5654 194.228 91.3319 189.51 93.8833" stroke="#3F3D56" stroke-miterlimit="10"/>
<path d="M195.346 7.9812C193.93 8.06114 192.565 8.53373 191.404 9.34598C190.242 10.1582 189.33 11.278 188.769 12.5798C187.124 16.5552 189.242 21.2248 192.42 24.1237C195.599 27.0226 199.682 28.6796 203.393 30.8576C208.376 33.7829 212.854 37.8439 215.347 43.0567C217.84 48.2695 218.106 54.7267 215.175 59.7067C212.454 64.3291 207.508 67.0955 202.79 69.6469" stroke="#3F3D56" stroke-miterlimit="10"/>
<path d="M239.01 13.5555C237.842 12.7523 236.473 12.2904 235.057 12.2215C233.641 12.1526 232.234 12.4794 230.994 13.1654C227.26 15.302 226.076 20.2907 226.814 24.5289C227.553 28.7671 229.768 32.5771 231.368 36.5704C233.518 41.9342 234.572 47.8865 233.353 53.5348C232.133 59.1831 228.39 64.4513 223.024 66.5949C218.043 68.5845 212.438 67.7439 207.146 66.8733" stroke="#3F3D56" stroke-miterlimit="10"/>
<path d="M200.531 63.6584C204.932 63.6584 208.499 61.9257 208.499 59.7882C208.499 57.6507 204.932 55.918 200.531 55.918C196.13 55.918 192.563 57.6507 192.563 59.7882C192.563 61.9257 196.13 63.6584 200.531 63.6584Z" fill="#57B894"/>
<path d="M199.535 62.9944C203.936 62.9944 207.503 61.2617 207.503 59.1242C207.503 56.9867 203.936 55.254 199.535 55.254C195.134 55.254 191.567 56.9867 191.567 59.1242C191.567 61.2617 195.134 62.9944 199.535 62.9944Z" stroke="#3F3D56" stroke-miterlimit="10"/>
<path d="M217.795 60.3384C222.196 60.3384 225.763 58.6056 225.763 56.4681C225.763 54.3307 222.196 52.5979 217.795 52.5979C213.395 52.5979 209.827 54.3307 209.827 56.4681C209.827 58.6056 213.395 60.3384 217.795 60.3384Z" fill="#57B894"/>
<path d="M216.8 59.6744C221.2 59.6744 224.768 57.9416 224.768 55.8041C224.768 53.6667 221.2 51.9339 216.8 51.9339C212.399 51.9339 208.832 53.6667 208.832 55.8041C208.832 57.9416 212.399 59.6744 216.8 59.6744Z" stroke="#3F3D56" stroke-miterlimit="10"/>
<path d="M220.452 74.9466C224.852 74.9466 228.42 73.2139 228.42 71.0764C228.42 68.9389 224.852 67.2062 220.452 67.2062C216.051 67.2062 212.483 68.9389 212.483 71.0764C212.483 73.2139 216.051 74.9466 220.452 74.9466Z" fill="#57B894"/>
<path d="M219.455 74.2826C223.856 74.2826 227.424 72.5498 227.424 70.4123C227.424 68.2749 223.856 66.5421 219.455 66.5421C215.055 66.5421 211.487 68.2749 211.487 70.4123C211.487 72.5498 215.055 74.2826 219.455 74.2826Z" stroke="#3F3D56" stroke-miterlimit="10"/>
<path d="M218.791 38.426C223.192 38.426 226.759 36.6933 226.759 34.5558C226.759 32.4183 223.192 30.6855 218.791 30.6855C214.391 30.6855 210.823 32.4183 210.823 34.5558C210.823 36.6933 214.391 38.426 218.791 38.426Z" fill="#57B894"/>
<path d="M217.795 37.762C222.196 37.762 225.763 36.0293 225.763 33.8918C225.763 31.7543 222.196 30.0215 217.795 30.0215C213.395 30.0215 209.827 31.7543 209.827 33.8918C209.827 36.0293 213.395 37.762 217.795 37.762Z" stroke="#3F3D56" stroke-miterlimit="10"/>
<path d="M198.871 36.102C203.272 36.102 206.839 34.3692 206.839 32.2317C206.839 30.0943 203.272 28.3615 198.871 28.3615C194.47 28.3615 190.903 30.0943 190.903 32.2317C190.903 34.3692 194.47 36.102 198.871 36.102Z" fill="#57B894"/>
<path d="M197.875 35.438C202.276 35.438 205.843 33.7052 205.843 31.5677C205.843 29.4303 202.276 27.6975 197.875 27.6975C193.475 27.6975 189.907 29.4303 189.907 31.5677C189.907 33.7052 193.475 35.438 197.875 35.438Z" stroke="#3F3D56" stroke-miterlimit="10"/>
<path d="M207.835 27.8019C212.236 27.8019 215.803 26.0691 215.803 23.9316C215.803 21.7942 212.236 20.0614 207.835 20.0614C203.435 20.0614 199.867 21.7942 199.867 23.9316C199.867 26.0691 203.435 27.8019 207.835 27.8019Z" fill="#57B894"/>
<path d="M206.839 27.1379C211.24 27.1379 214.807 25.4051 214.807 23.2676C214.807 21.1302 211.24 19.3974 206.839 19.3974C202.439 19.3974 198.871 21.1302 198.871 23.2676C198.871 25.4051 202.439 27.1379 206.839 27.1379Z" stroke="#3F3D56" stroke-miterlimit="10"/>
<path d="M227.424 29.4619C231.824 29.4619 235.392 27.7291 235.392 25.5917C235.392 23.4542 231.824 21.7214 227.424 21.7214C223.023 21.7214 219.456 23.4542 219.456 25.5917C219.456 27.7291 223.023 29.4619 227.424 29.4619Z" fill="#57B894"/>
<path d="M226.428 28.7979C230.828 28.7979 234.396 27.0651 234.396 24.9277C234.396 22.7902 230.828 21.0574 226.428 21.0574C222.027 21.0574 218.459 22.7902 218.459 24.9277C218.459 27.0651 222.027 28.7979 226.428 28.7979Z" stroke="#3F3D56" stroke-miterlimit="10"/>
<path d="M242.032 40.4181C246.433 40.4181 250 38.6853 250 36.5478C250 34.4104 246.433 32.6776 242.032 32.6776C237.631 32.6776 234.064 34.4104 234.064 36.5478C234.064 38.6853 237.631 40.4181 242.032 40.4181Z" fill="#57B894"/>
<path d="M241.036 39.7541C245.437 39.7541 249.004 38.0213 249.004 35.8838C249.004 33.7464 245.437 32.0136 241.036 32.0136C236.635 32.0136 233.068 33.7464 233.068 35.8838C233.068 38.0213 236.635 39.7541 241.036 39.7541Z" stroke="#3F3D56" stroke-miterlimit="10"/>
<path d="M190.571 21.1618C194.972 21.1618 198.539 19.429 198.539 17.2916C198.539 15.1541 194.972 13.4213 190.571 13.4213C186.17 13.4213 182.603 15.1541 182.603 17.2916C182.603 19.429 186.17 21.1618 190.571 21.1618Z" fill="#57B894"/>
<path d="M189.575 20.4977C193.976 20.4977 197.543 18.765 197.543 16.6275C197.543 14.49 193.976 12.7573 189.575 12.7573C185.174 12.7573 181.607 14.49 181.607 16.6275C181.607 18.765 185.174 20.4977 189.575 20.4977Z" stroke="#3F3D56" stroke-miterlimit="10"/>
<path d="M195.551 8.54558C199.952 8.54558 203.519 6.81282 203.519 4.67535C203.519 2.53788 199.952 0.805115 195.551 0.805115C191.15 0.805115 187.583 2.53788 187.583 4.67535C187.583 6.81282 191.15 8.54558 195.551 8.54558Z" fill="#57B894"/>
<path d="M194.555 7.88158C198.956 7.88158 202.523 6.14882 202.523 4.01135C202.523 1.87388 198.956 0.141113 194.555 0.141113C190.154 0.141113 186.587 1.87388 186.587 4.01135C186.587 6.14882 190.154 7.88158 194.555 7.88158Z" stroke="#3F3D56" stroke-miterlimit="10"/>
<path d="M241.7 17.8417C246.101 17.8417 249.668 16.109 249.668 13.9715C249.668 11.834 246.101 10.1013 241.7 10.1013C237.299 10.1013 233.732 11.834 233.732 13.9715C233.732 16.109 237.299 17.8417 241.7 17.8417Z" fill="#57B894"/>
<path d="M240.704 17.1777C245.105 17.1777 248.672 15.445 248.672 13.3075C248.672 11.17 245.105 9.43726 240.704 9.43726C236.303 9.43726 232.736 11.17 232.736 13.3075C232.736 15.445 236.303 17.1777 240.704 17.1777Z" stroke="#3F3D56" stroke-miterlimit="10"/>
<path d="M168.327 48.3862C172.727 48.3862 176.295 46.6535 176.295 44.516C176.295 42.3785 172.727 40.6458 168.327 40.6458C163.926 40.6458 160.358 42.3785 160.358 44.516C160.358 46.6535 163.926 48.3862 168.327 48.3862Z" fill="#57B894"/>
<path d="M167.33 47.7222C171.731 47.7222 175.299 45.9895 175.299 43.852C175.299 41.7145 171.731 39.9818 167.33 39.9818C162.93 39.9818 159.362 41.7145 159.362 43.852C159.362 45.9895 162.93 47.7222 167.33 47.7222Z" stroke="#3F3D56" stroke-miterlimit="10"/>
<path d="M195.883 46.3942C200.284 46.3942 203.851 44.6614 203.851 42.5239C203.851 40.3864 200.284 38.6537 195.883 38.6537C191.483 38.6537 187.915 40.3864 187.915 42.5239C187.915 44.6614 191.483 46.3942 195.883 46.3942Z" fill="#57B894"/>
<path d="M194.887 45.7301C199.288 45.7301 202.855 43.9974 202.855 41.8599C202.855 39.7224 199.288 37.9897 194.887 37.9897C190.486 37.9897 186.919 39.7224 186.919 41.8599C186.919 43.9974 190.486 45.7301 194.887 45.7301Z" stroke="#3F3D56" stroke-miterlimit="10"/>
<path d="M232.072 49.3822C236.472 49.3822 240.04 47.6494 240.04 45.512C240.04 43.3745 236.472 41.6417 232.072 41.6417C227.671 41.6417 224.104 43.3745 224.104 45.512C224.104 47.6494 227.671 49.3822 232.072 49.3822Z" fill="#57B894"/>
<path d="M231.076 48.7182C235.476 48.7182 239.044 46.9854 239.044 44.848C239.044 42.7105 235.476 40.9777 231.076 40.9777C226.675 40.9777 223.107 42.7105 223.107 44.848C223.107 46.9854 226.675 48.7182 231.076 48.7182Z" stroke="#3F3D56" stroke-miterlimit="10"/>
<path d="M212.815 50.7103C217.216 50.7103 220.783 48.9775 220.783 46.84C220.783 44.7026 217.216 42.9698 212.815 42.9698C208.415 42.9698 204.847 44.7026 204.847 46.84C204.847 48.9775 208.415 50.7103 212.815 50.7103Z" fill="#57B894"/>
<path d="M211.819 50.0463C216.22 50.0463 219.787 48.3135 219.787 46.176C219.787 44.0385 216.22 42.3058 211.819 42.3058C207.419 42.3058 203.851 44.0385 203.851 46.176C203.851 48.3135 207.419 50.0463 211.819 50.0463Z" stroke="#3F3D56" stroke-miterlimit="10"/>
<path d="M214.143 17.5097C218.544 17.5097 222.112 15.7769 222.112 13.6395C222.112 11.502 218.544 9.76923 214.143 9.76923C209.743 9.76923 206.175 11.502 206.175 13.6395C206.175 15.7769 209.743 17.5097 214.143 17.5097Z" fill="#57B894"/>
<path d="M213.147 16.8457C217.548 16.8457 221.115 15.1129 221.115 12.9755C221.115 10.838 217.548 9.10522 213.147 9.10522C208.747 9.10522 205.179 10.838 205.179 12.9755C205.179 15.1129 208.747 16.8457 213.147 16.8457Z" stroke="#3F3D56" stroke-miterlimit="10"/>
<path d="M179.947 38.094C184.347 38.094 187.915 36.3613 187.915 34.2238C187.915 32.0863 184.347 30.3536 179.947 30.3536C175.546 30.3536 171.979 32.0863 171.979 34.2238C171.979 36.3613 175.546 38.094 179.947 38.094Z" fill="#57B894"/>
<path d="M178.951 37.43C183.352 37.43 186.919 35.6973 186.919 33.5598C186.919 31.4223 183.352 29.6896 178.951 29.6896C174.55 29.6896 170.983 31.4223 170.983 33.5598C170.983 35.6973 174.55 37.43 178.951 37.43Z" stroke="#3F3D56" stroke-miterlimit="10"/>
<path d="M184.595 53.0343C188.996 53.0343 192.563 51.3015 192.563 49.1641C192.563 47.0266 188.996 45.2938 184.595 45.2938C180.194 45.2938 176.627 47.0266 176.627 49.1641C176.627 51.3015 180.194 53.0343 184.595 53.0343Z" fill="#57B894"/>
<path d="M183.599 52.3703C188 52.3703 191.567 50.6375 191.567 48.5001C191.567 46.3626 188 44.6298 183.599 44.6298C179.198 44.6298 175.631 46.3626 175.631 48.5001C175.631 50.6375 179.198 52.3703 183.599 52.3703Z" stroke="#3F3D56" stroke-miterlimit="10"/>
<g opacity="0.3">
<path d="M184.781 75.5901C185.905 73.5776 186.111 71.5513 185.239 71.0642C184.368 70.5771 182.749 71.8137 181.624 73.8262C180.5 75.8386 180.294 77.865 181.166 78.3521C182.037 78.8392 183.656 77.6026 184.781 75.5901Z" fill="#57B894"/>
<path d="M184.255 75.8943C185.38 73.8818 185.585 71.8555 184.714 71.3684C183.842 70.8813 182.224 72.1179 181.099 74.1303C179.974 76.1428 179.769 78.1692 180.641 78.6563C181.512 79.1434 183.13 77.9068 184.255 75.8943Z" stroke="#3F3D56" stroke-miterlimit="10"/>
</g>
<g opacity="0.3">
<path d="M226.314 85.2378C226.98 84.4938 226.127 82.6443 224.409 81.1068C222.691 79.5693 220.759 78.926 220.093 79.67C219.427 80.4139 220.28 82.2634 221.998 83.8009C223.716 85.3384 225.648 85.9817 226.314 85.2378Z" fill="#57B894"/>
<path d="M226.132 84.6587C226.798 83.9147 225.945 82.0652 224.227 80.5277C222.509 78.9901 220.577 78.3469 219.911 79.0908C219.245 79.8348 220.098 81.6843 221.816 83.2218C223.534 84.7593 225.466 85.4026 226.132 84.6587Z" stroke="#3F3D56" stroke-miterlimit="10"/>
</g>
<g opacity="0.3">
<path d="M189.129 64.3214C189.795 63.5775 188.942 61.7279 187.224 60.1904C185.507 58.6529 183.574 58.0096 182.908 58.7536C182.242 59.4976 183.095 61.3471 184.813 62.8846C186.531 64.4221 188.464 65.0654 189.129 64.3214Z" fill="#57B894"/>
<path d="M188.947 63.7423C189.613 62.9984 188.76 61.1488 187.042 59.6113C185.324 58.0738 183.392 57.4305 182.726 58.1745C182.06 58.9185 182.913 60.768 184.631 62.3055C186.349 63.843 188.281 64.4863 188.947 63.7423Z" stroke="#3F3D56" stroke-miterlimit="10"/>
</g>
</g>
<defs>
<clipPath id="clip0_65_575">
<rect width="250" height="184.622" fill="white"/>
</clipPath>
</defs>
</svg>
