<svg width="250" height="203" viewBox="0 0 250 203" fill="none" xmlns="http://www.w3.org/2000/svg">
<g clip-path="url(#clip0_65_425)">
<path d="M199.581 36.9341C198.282 51.2431 194.583 66.3312 188.78 80.8892C181.605 98.8921 171.801 114.749 160.429 126.745L159.798 126.195C171.115 114.256 180.874 98.4695 188.019 80.5411C194.477 64.3395 198.318 47.4793 199.132 31.7907L199.939 31.9257C199.853 33.5826 199.734 35.2521 199.581 36.9341Z" fill="#F2F2F2"/>
<path d="M204.753 120.038C188.781 145.45 169.402 163.607 150.188 171.163L149.799 170.451C168.881 162.946 188.145 144.882 204.045 119.587L204.753 120.038Z" fill="#F2F2F2"/>
<path d="M199.193 54.7494C197.895 69.0585 194.195 84.1465 188.392 98.7045C181.217 116.707 171.413 132.564 160.041 144.561L159.41 144.011C170.727 132.072 180.486 116.285 187.632 98.3564C194.09 82.1548 197.931 65.2946 198.745 49.606L199.551 49.741C199.466 51.398 199.346 53.0674 199.193 54.7494Z" fill="#F2F2F2"/>
<path d="M19.8786 91.485H9.39852C9.17461 91.4855 8.9535 91.4353 8.75178 91.3381C8.55006 91.2409 8.37295 91.0994 8.23376 90.924C8.09624 90.7531 7.99923 90.5532 7.94999 90.3395C7.90075 90.1257 7.90056 89.9036 7.94945 89.6897C8.94757 85.2856 8.88486 80.7073 7.7665 76.3321C7.69576 76.044 7.71287 75.7414 7.81561 75.4631C7.91836 75.1848 8.10204 74.9437 8.34301 74.7707C13.7319 70.8949 17.9758 71.0074 20.957 75.1055C21.0913 75.2923 21.1806 75.5077 21.2178 75.7348C22.0143 80.5234 22.0584 85.407 21.3484 90.2093C21.2991 90.5637 21.123 90.8882 20.8528 91.1228C20.5825 91.3573 20.2364 91.486 19.8786 91.485Z" fill="#E6E6E6"/>
<path d="M16.6298 80.9901H13.0246C12.8253 80.9901 12.6341 80.9109 12.4931 80.7699C12.3521 80.629 12.2729 80.4378 12.2729 80.2384C12.2729 80.0391 12.3521 79.8479 12.4931 79.7069C12.6341 79.566 12.8253 79.4868 13.0246 79.4868H16.6298C16.8289 79.4872 17.0197 79.5665 17.1603 79.7075C17.3009 79.8484 17.3799 80.0393 17.3799 80.2384C17.3799 80.4375 17.3009 80.6285 17.1603 80.7694C17.0197 80.9103 16.8289 80.9897 16.6298 80.9901Z" fill="white"/>
<path d="M16.6298 83.6263H13.0246C12.8253 83.6263 12.6341 83.5471 12.4931 83.4061C12.3521 83.2651 12.2729 83.074 12.2729 82.8746C12.2729 82.6752 12.3521 82.4841 12.4931 82.3431C12.6341 82.2021 12.8253 82.1229 13.0246 82.1229H16.6298C16.8289 82.1233 17.0197 82.2027 17.1603 82.3436C17.3009 82.4846 17.3799 82.6755 17.3799 82.8746C17.3799 83.0737 17.3009 83.2646 17.1603 83.4056C17.0197 83.5465 16.8289 83.6259 16.6298 83.6263Z" fill="white"/>
<path d="M16.6298 86.2624H13.0246C12.8253 86.2624 12.6341 86.1833 12.4931 86.0423C12.3521 85.9013 12.2729 85.7101 12.2729 85.5108C12.2729 85.3114 12.3521 85.1202 12.4931 84.9793C12.6341 84.8383 12.8253 84.7591 13.0246 84.7591H16.6298C16.8289 84.7595 17.0197 84.8389 17.1603 84.9798C17.3009 85.1207 17.3799 85.3117 17.3799 85.5108C17.3799 85.7099 17.3009 85.9008 17.1603 86.0417C17.0197 86.1827 16.8289 86.262 16.6298 86.2624Z" fill="white"/>
<path d="M210.343 138.277H199.863C199.639 138.278 199.418 138.228 199.217 138.131C199.015 138.033 198.838 137.892 198.699 137.716C198.561 137.545 198.464 137.346 198.415 137.132C198.366 136.918 198.365 136.696 198.414 136.482C199.412 132.078 199.35 127.5 198.231 123.124C198.161 122.836 198.178 122.534 198.28 122.256C198.383 121.977 198.567 121.736 198.808 121.563C204.197 117.687 208.441 117.8 211.422 121.898C211.556 122.085 211.645 122.3 211.683 122.527C212.479 127.316 212.523 132.199 211.813 137.002C211.764 137.356 211.588 137.681 211.318 137.915C211.047 138.15 210.701 138.278 210.343 138.277Z" fill="#E6E6E6"/>
<path d="M207.095 127.782H203.489C203.29 127.782 203.099 127.703 202.959 127.562C202.818 127.421 202.739 127.23 202.739 127.031C202.739 126.832 202.818 126.641 202.959 126.5C203.099 126.359 203.29 126.28 203.489 126.279H207.095C207.294 126.279 207.485 126.358 207.626 126.499C207.767 126.64 207.846 126.831 207.846 127.031C207.846 127.23 207.767 127.421 207.626 127.562C207.485 127.703 207.294 127.782 207.095 127.782Z" fill="white"/>
<path d="M207.095 130.419H203.489C203.29 130.418 203.099 130.339 202.959 130.198C202.818 130.057 202.739 129.866 202.739 129.667C202.739 129.468 202.818 129.277 202.959 129.136C203.099 128.995 203.29 128.916 203.489 128.915H207.095C207.294 128.915 207.485 128.995 207.626 129.136C207.767 129.276 207.846 129.468 207.846 129.667C207.846 129.866 207.767 130.058 207.626 130.199C207.485 130.34 207.294 130.419 207.095 130.419Z" fill="white"/>
<path d="M207.095 133.055H203.489C203.29 133.054 203.099 132.975 202.959 132.834C202.818 132.693 202.739 132.502 202.739 132.303C202.739 132.104 202.818 131.913 202.959 131.772C203.099 131.631 203.29 131.552 203.489 131.552H207.095C207.294 131.552 207.485 131.631 207.626 131.772C207.767 131.913 207.846 132.104 207.846 132.303C207.846 132.503 207.767 132.694 207.626 132.835C207.485 132.976 207.294 133.055 207.095 133.055Z" fill="white"/>
<path d="M250 202.373C250 202.424 249.99 202.475 249.97 202.523C249.951 202.571 249.922 202.614 249.885 202.65C249.849 202.687 249.806 202.716 249.758 202.735C249.71 202.755 249.659 202.765 249.608 202.765H0.392134C0.288134 202.765 0.188397 202.724 0.114858 202.65C0.0413184 202.576 0 202.477 0 202.373C0 202.269 0.0413184 202.169 0.114858 202.095C0.188397 202.022 0.288134 201.981 0.392134 201.981H249.608C249.659 201.98 249.71 201.99 249.758 202.01C249.806 202.03 249.849 202.059 249.885 202.095C249.922 202.132 249.951 202.175 249.97 202.222C249.99 202.27 250 202.321 250 202.373Z" fill="#CCCCCC"/>
<path d="M65.7411 178.363L65.0874 169.272C60.8058 167.132 56.0664 166.069 51.2808 166.176C58.0135 171.38 57.4742 181.782 62.137 188.9C63.6083 191.109 65.5578 192.959 67.8411 194.312C70.1244 195.665 72.6829 196.487 75.3271 196.717L80.9303 199.94C81.5713 195.704 81.2862 191.379 80.0947 187.264C78.9033 183.148 76.8337 179.34 74.0287 176.101C72.437 174.299 70.6249 172.706 68.635 171.357C67.4103 174.874 65.7411 178.363 65.7411 178.363Z" fill="#F2F2F2"/>
<path d="M184.259 179.682L184.912 170.591C189.194 168.45 193.933 167.387 198.719 167.494C191.986 172.698 192.526 183.1 187.863 190.218C186.391 192.427 184.442 194.277 182.159 195.63C179.875 196.983 177.317 197.805 174.673 198.035L169.069 201.259C168.428 197.022 168.714 192.697 169.905 188.582C171.096 184.466 173.166 180.658 175.971 177.419C177.563 175.618 179.375 174.024 181.365 172.675C182.589 176.192 184.259 179.682 184.259 179.682Z" fill="#F2F2F2"/>
<path d="M122.034 77.0896C125.492 77.0896 128.295 74.2865 128.295 70.8286C128.295 67.3708 125.492 64.5677 122.034 64.5677C118.577 64.5677 115.773 67.3708 115.773 70.8286C115.773 74.2865 118.577 77.0896 122.034 77.0896Z" fill="#162995"/>
<path d="M125.248 68.2193C125.154 68.1295 125.029 68.0793 124.899 68.0793C124.768 68.0793 124.643 68.1295 124.549 68.2193C123.221 69.2789 122.027 70.4977 120.996 71.8483C120.743 71.3585 120.49 70.8687 120.237 70.3789C119.945 69.8135 119.091 70.313 119.383 70.8778C119.753 71.5943 120.124 72.3107 120.494 73.0271C120.539 73.1002 120.601 73.1607 120.676 73.2026C120.751 73.2445 120.835 73.2666 120.921 73.2666C121.006 73.2666 121.091 73.2445 121.165 73.2026C121.24 73.1607 121.303 73.1002 121.348 73.0271C122.446 71.4795 123.76 70.0961 125.248 68.9184C125.34 68.8253 125.392 68.6997 125.392 68.5688C125.392 68.438 125.34 68.3124 125.248 68.2193Z" fill="white"/>
<path d="M94.0195 88.5825L84.5781 73.7553L95.511 67.9002L98.3805 79.2127L118.599 90.138C119.397 89.8507 120.261 89.8019 121.087 89.9975C121.912 90.1931 122.663 90.6246 123.247 91.2395C123.832 91.8544 124.225 92.6261 124.378 93.4604C124.532 94.2947 124.439 95.1557 124.112 95.9383C123.784 96.7209 123.236 97.3914 122.535 97.8679C121.833 98.3445 121.007 98.6065 120.159 98.6221C119.311 98.6377 118.477 98.4061 117.758 97.9557C117.039 97.5053 116.467 96.8554 116.111 96.0853L94.0195 88.5825Z" fill="#A0616A"/>
<path d="M77.6806 55.9716C74.7141 60.3271 85.2563 76.1591 85.2563 76.1591C85.7699 75.0521 90.6793 87.4835 91.5016 86.7492C93.8386 84.6621 97.4969 78.8484 99.5305 78.5892C100.693 78.441 96.8333 70.1935 96.8333 70.1935C96.8333 70.1935 95.0692 65.3233 92.6753 59.1021C92.0312 57.3308 90.9493 55.7512 89.5305 54.5104C88.1116 53.2696 86.4019 52.408 84.5605 52.0057C84.5605 52.0057 80.6471 51.616 77.6806 55.9716Z" fill="#3F3D56"/>
<path d="M77.8252 197.876L82.309 197.876L84.4421 180.581L77.8242 180.581L77.8252 197.876Z" fill="#A0616A"/>
<path d="M76.6812 196.412L77.9432 196.412L82.8706 194.408L85.5116 196.412H85.5119C87.0044 196.412 88.4357 197.005 89.491 198.06C90.5463 199.115 91.1393 200.547 91.1394 202.039V202.222L76.6814 202.223L76.6812 196.412Z" fill="#2F2E41"/>
<path d="M98.6564 197.876L103.14 197.876L105.274 180.581L98.6558 180.581L98.6564 197.876Z" fill="#A0616A"/>
<path d="M97.5127 196.412L98.7748 196.412L103.702 194.408L106.343 196.412H106.343C107.836 196.412 109.267 197.005 110.323 198.06C111.378 199.115 111.971 200.547 111.971 202.039V202.222L97.513 202.223L97.5127 196.412Z" fill="#2F2E41"/>
<path d="M100.597 103.323L71.4321 104.052C65.893 107.06 65.8089 113.572 67.6238 121.303C67.6238 121.303 67.0111 125.898 68.2365 127.124C69.4618 128.349 70.0745 128.349 69.4618 130.494C68.8492 132.638 72.0863 136.14 71.6931 136.534C71.2999 136.927 70.3809 139.071 70.3809 139.071L73.4443 156.533C73.4443 156.533 75.5887 186.861 76.2014 187.474C76.8141 188.086 77.4268 187.474 76.8141 189.005C76.2014 190.537 75.5887 189.924 76.2014 190.537C76.7441 191.122 77.2554 191.736 77.7331 192.375H85.1397C85.1397 192.375 85.6981 189.312 85.6981 189.005C85.6981 188.699 86.3108 186.861 86.3108 186.555C86.3108 186.248 85.7692 185.707 85.7692 185.707C85.5821 185.084 85.4557 184.445 85.3917 183.797C85.3917 183.185 83.5537 159.596 83.5537 159.596L87.2298 128.962L96.1137 158.984C96.1137 158.984 96.1137 185.329 96.7264 185.942C97.3391 186.555 97.3391 186.248 97.0328 187.474C96.7264 188.699 95.501 188.393 96.4201 189.312C97.3391 190.231 97.6455 188.699 97.3391 190.231L97.0328 191.762L106.223 191.894C106.223 191.894 107.448 189.312 106.836 188.393C106.223 187.474 106.26 187.724 107.007 186.22C107.755 184.717 108.061 184.41 107.755 184.104C107.448 183.797 107.448 182.168 107.448 182.168L105.917 152.857C105.917 152.857 105.61 121.916 105.61 120.997C105.587 120.524 105.674 120.052 105.865 119.619V118.371L104.691 113.951L100.597 103.323Z" fill="#2F2E41"/>
<path d="M83.0774 42.6783C88.0821 42.6783 92.1392 38.6211 92.1392 33.6164C92.1392 28.6117 88.0821 24.5546 83.0774 24.5546C78.0727 24.5546 74.0156 28.6117 74.0156 33.6164C74.0156 38.6211 78.0727 42.6783 83.0774 42.6783Z" fill="#A0616A"/>
<path d="M87.6086 48.6675C89.5608 49.8281 90.7287 51.9606 91.3991 54.1306C92.6402 58.148 93.3873 62.3017 93.6238 66.4999L94.3319 79.0684L103.101 105.83C95.5012 112.261 66.933 107.292 66.933 107.292C66.933 107.292 66.0561 107 66.933 106.123C67.81 105.246 68.6637 106.023 67.7868 105.146C66.9098 104.269 67.5143 105.246 67.8067 104.369C68.099 103.492 67.8067 104.076 67.5143 103.784C67.222 103.492 69.7773 100.861 69.7773 100.861L67.4388 85.4993L64.5156 54.5138C68.0234 50.1291 75.0781 47.5443 75.0781 47.5443L76.9009 44.2632L86.015 44.9923L87.6086 48.6675Z" fill="#3F3D56"/>
<path d="M90.5477 28.8021C91.252 29.3274 91.7737 30.0604 92.0396 30.8978C92.1417 29.5292 92.1482 28.1552 92.059 26.7858C91.9522 25.8234 91.2747 25.607 90.4902 25.3561C89.7817 25.1295 88.9805 24.8736 88.7649 23.9394C85.9164 21.1683 80.9577 21.308 77.5641 22.2746C75.6968 22.8065 74.6223 23.4899 74.5262 23.8902L74.5063 23.9727L74.4304 24.0106C72.991 24.7303 72.7108 27.0029 72.7294 28.7827C72.7644 32.1359 73.9222 35.9442 74.5744 36.2536C74.609 36.27 74.6177 36.2636 74.6326 36.2511C75.6147 35.4663 76.8129 36.3108 77.3395 36.7698C77.65 34.6858 78.65 32.7659 80.1797 31.3168C81.7094 29.8678 83.6806 28.9731 85.7784 28.7757C86.4635 28.7095 87.1431 28.5956 87.8124 28.4347C88.1518 28.3469 88.5008 28.3011 88.8514 28.2983C89.455 28.2892 90.0469 28.465 90.5477 28.8021Z" fill="#2F2E41"/>
<path d="M146.802 110.544L164.234 92.8421L168.826 78.6847L161.436 75.6953C157.775 79.3883 154.006 90.6936 154.006 90.6936L142.108 106.662C142.013 106.697 141.918 106.734 141.825 106.779C141.277 107.037 140.806 107.433 140.455 107.927C140.105 108.421 139.888 108.997 139.826 109.6C139.763 110.203 139.857 110.811 140.099 111.367C140.34 111.922 140.721 112.406 141.204 112.771C141.687 113.137 142.256 113.372 142.857 113.453C143.457 113.534 144.068 113.459 144.631 113.235C145.194 113.011 145.689 112.646 146.07 112.174C146.45 111.703 146.702 111.141 146.802 110.544Z" fill="#FFB8B8"/>
<path d="M159.42 77.3148L168.766 80.0185L168.801 80.0118C172.237 79.3447 174.954 73.6354 176.629 68.9633C177.18 67.4223 177.125 65.7296 176.476 64.2274C175.827 62.7252 174.631 61.5256 173.131 60.871C172.021 60.3957 170.801 60.2402 169.607 60.4222C168.414 60.6041 167.295 61.1163 166.377 61.9008L161.717 65.9135L159.42 77.3148Z" fill="#162995"/>
<path d="M151.423 197.35L146.397 197.35L144.006 177.962L151.424 177.963L151.423 197.35Z" fill="#FFB8B8"/>
<path d="M152.705 195.709L151.29 195.709L145.767 193.463L142.806 195.709H142.806C141.133 195.709 139.528 196.373 138.345 197.556C137.162 198.739 136.498 200.344 136.498 202.017V202.222L152.705 202.223L152.705 195.709Z" fill="#2F2E41"/>
<path d="M173.726 197.35L168.7 197.35L166.309 177.962L173.727 177.963L173.726 197.35Z" fill="#FFB8B8"/>
<path d="M175.008 195.709L173.594 195.709L168.07 193.463L165.11 195.709H165.109C163.436 195.709 161.832 196.373 160.649 197.556C159.466 198.739 158.801 200.344 158.801 202.017V202.222L175.008 202.223L175.008 195.709Z" fill="#2F2E41"/>
<path d="M181.391 113.84C181.391 113.84 181.977 120.884 180.51 127.633C179.043 134.383 179.043 153.392 179.043 153.392L175.815 190.434L166.13 189.554L163.489 127.633L154.098 148.469L154.979 151.404L153.806 152.137C153.806 152.137 154.685 157.86 154.098 157.86C153.512 157.86 152.044 158.74 152.044 158.74L153.218 188.967L143.24 188.674L139.719 146.121L143.534 121.764L143.827 117.069L145.148 117.123L145.82 115.161L147.055 111.786L181.391 113.84Z" fill="#2F2E41"/>
<path d="M181.898 115.32L181.95 115.247C184.744 111.336 180.543 101.938 179.909 100.576L182.578 99.71L181.977 94.6015L181.692 92.324L183.732 90.2842L183.738 90.2334L184.911 79.9621L186.618 73.1401C187.261 70.5611 187.207 67.8575 186.459 65.3067C185.712 62.7559 184.3 60.4498 182.367 58.6253L178.422 54.9055L173.627 47.8113H165.896L163.245 52.8188C160.674 53.4128 158.394 54.8897 156.801 56.9922C155.207 59.0947 154.402 61.6895 154.525 64.3246L155.126 77.4578L152.774 93.8098L152.773 96.7691L150.125 99.7109L150.704 102.601L148.689 103.464L147.799 107.615C147.431 108.101 145.001 111.341 145.001 112.227C145.001 112.359 145.1 112.488 145.31 112.631C146.966 113.752 156.119 116.038 160.169 114.417C164.484 112.692 181.636 115.28 181.809 115.306L181.898 115.32Z" fill="#162995"/>
<path d="M168.763 45.5211C174.418 45.5211 179.003 40.9366 179.003 35.2813C179.003 29.6261 174.418 25.0416 168.763 25.0416C163.107 25.0416 158.523 29.6261 158.523 35.2813C158.523 40.9366 163.107 45.5211 168.763 45.5211Z" fill="#FFB8B8"/>
<path d="M167.782 45.6869C169.368 45.6707 170.949 45.519 172.509 45.2336C174.054 44.8778 177.461 42.243 178.39 40.6864C179.08 39.5299 179.494 37.741 179.72 36.4441C180.025 34.7277 179.966 32.9663 179.547 31.2741C179.128 29.5818 178.359 27.9964 177.288 26.6205C176.875 26.0441 176.315 25.5899 175.665 25.3061C175.608 25.2853 175.549 25.2671 175.489 25.2518C174.547 25.0298 173.694 24.5315 173.037 23.8208C172.91 23.677 172.772 23.5424 172.625 23.4183C171.889 22.8288 171.024 22.4219 170.1 22.2309C168.608 21.8725 166.473 22.3216 163.756 23.5668C162.39 24.1924 160.875 24.0179 159.707 23.7959C159.641 23.785 159.574 23.7914 159.512 23.8146C159.45 23.8377 159.395 23.8767 159.352 23.9277C158.87 24.4044 158.225 24.6809 157.548 24.7017C157.133 24.7306 156.712 25.3167 156.205 26.0799C156.09 26.2531 155.956 26.4553 155.858 26.5787L155.839 26.347L155.611 26.6119C155.252 27.0283 155.005 27.5287 154.892 28.0664C154.778 28.6042 154.803 29.1619 154.964 29.6875C155.124 30.2131 155.415 30.6896 155.809 31.0726C156.203 31.4556 156.688 31.7326 157.218 31.8779C157.638 31.9782 158.068 32.0354 158.5 32.0484C158.762 32.0652 159.033 32.0825 159.293 32.1208C160.129 32.2696 160.912 32.6326 161.565 33.1743C162.219 33.7161 162.721 34.418 163.022 35.2117C163.094 35.3952 163.206 35.5598 163.351 35.6929C163.496 35.826 163.669 35.924 163.858 35.9794C164.047 36.0348 164.246 36.0461 164.44 36.0124C164.634 35.9786 164.817 35.9008 164.976 35.7849C165.24 35.5678 165.553 35.4179 165.888 35.3479C166.223 35.278 166.57 35.29 166.899 35.3831C167.186 35.5328 167.412 35.7763 167.54 36.0729C167.695 36.4031 167.944 36.6796 168.257 36.8672C169.323 37.3825 169.458 39.7836 169.132 41.7966C168.817 43.7369 168.133 45.1524 167.468 45.2387C166.957 45.305 166.899 45.343 166.864 45.4347L166.833 45.5168L166.893 45.5913C167.179 45.6867 167.482 45.7193 167.782 45.6869Z" fill="#2F2E41"/>
<path d="M159.286 78.41L154.364 72.1385C149.351 73.5191 140.455 81.4484 140.455 81.4484L122.185 89.3766C121.576 89.2741 120.95 89.3341 120.37 89.5505C119.791 89.7668 119.279 90.132 118.886 90.6092C118.493 91.0863 118.232 91.6586 118.13 92.2685C118.029 92.8784 118.089 93.5043 118.307 94.0833C118.524 94.6623 118.889 95.1738 119.367 95.5665C119.845 95.9591 120.417 96.2191 121.027 96.3201C121.637 96.4211 122.263 96.3596 122.842 96.1418C123.421 95.924 123.932 95.5577 124.324 95.0796L148.256 88.4029L159.286 78.41Z" fill="#FFB8B8"/>
<path d="M158.107 79.8437L165.873 71.1863L166.304 65.0518C166.384 63.8472 166.126 62.6442 165.558 61.5787C164.991 60.5132 164.137 59.6276 163.092 59.0221C161.671 58.2109 159.994 57.9696 158.402 58.3471C156.809 58.7246 155.42 59.6927 154.514 61.0557C151.77 65.1914 148.818 70.7831 150.337 73.9357L150.352 73.9677L158.107 79.8437Z" fill="#162995"/>
<path d="M86.5264 112.384L66.3416 102.047C64.9058 101.311 64.4302 99.3609 65.2814 97.6989L78.4423 72.0014C79.2935 70.3394 81.1541 69.5855 82.5898 70.3208L102.775 80.6584C104.21 81.3937 104.686 83.3441 103.835 85.0061L90.6739 110.704C89.8227 112.366 87.9621 113.119 86.5264 112.384Z" fill="#E6E6E6"/>
<path d="M83.0776 107.632L69.3638 100.608C68.0191 99.9197 67.5736 98.0931 68.3708 96.5365L79.3047 75.1875C80.1019 73.6309 81.8444 72.925 83.1891 73.6136L99.7525 82.0966C101.097 82.7852 101.543 84.6117 100.745 86.1683L94.8055 97.7663C91.2547 104.7 89.0672 110.699 83.0776 107.632Z" fill="white"/>
<path d="M89.8577 95.9732L77.7109 89.7522C77.5624 89.6464 77.4569 89.4907 77.4137 89.3135C77.3705 89.1364 77.3925 88.9495 77.4756 88.7872C77.5587 88.6249 77.6975 88.4979 77.8665 88.4294C78.0355 88.361 78.2235 88.3556 78.3962 88.4142L90.5429 94.6351C90.6914 94.741 90.7969 94.8967 90.8401 95.0739C90.8834 95.251 90.8614 95.4378 90.7783 95.6002C90.6951 95.7625 90.5564 95.8895 90.3874 95.9579C90.2183 96.0264 90.0303 96.0318 89.8577 95.9732Z" fill="#162995"/>
<path d="M79.1294 93.8155L76.3574 92.3958C76.2089 92.29 76.1034 92.1342 76.0602 91.9571C76.017 91.7799 76.039 91.5931 76.1221 91.4308C76.2052 91.2684 76.344 91.1414 76.513 91.0729C76.682 91.0045 76.87 90.9991 77.0427 91.0577L79.8147 92.4774C79.9632 92.5832 80.0687 92.7389 80.1119 92.9161C80.1551 93.0933 80.1332 93.2801 80.05 93.4424C79.9669 93.6048 79.8282 93.7318 79.6591 93.8002C79.4901 93.8687 79.3021 93.8741 79.1294 93.8155Z" fill="#162995"/>
<path d="M82.685 98.9735L75.0034 95.0394C74.8549 94.9336 74.7494 94.7779 74.7062 94.6007C74.663 94.4235 74.685 94.2367 74.7681 94.0744C74.8512 93.9121 74.99 93.785 75.159 93.7166C75.328 93.6481 75.516 93.6427 75.6887 93.7013L83.3703 97.6354C83.5188 97.7413 83.6243 97.897 83.6675 98.0742C83.7107 98.2513 83.6887 98.4381 83.6056 98.6005C83.5225 98.7628 83.3837 98.8898 83.2147 98.9583C83.0457 99.0268 82.8577 99.0322 82.685 98.9735Z" fill="#162995"/>
<path d="M94.6648 86.5877L82.5181 80.3667C82.3696 80.2609 82.2641 80.1052 82.2209 79.928C82.1776 79.7509 82.1996 79.5641 82.2827 79.4017C82.3659 79.2394 82.5046 79.1124 82.6736 79.0439C82.8427 78.9755 83.0307 78.9701 83.2033 79.0287L95.3501 85.2496C95.4986 85.3555 95.6041 85.5112 95.6473 85.6884C95.6905 85.8655 95.6685 86.0523 95.5854 86.2146C95.5023 86.377 95.3635 86.504 95.1945 86.5725C95.0255 86.6409 94.8375 86.6463 94.6648 86.5877Z" fill="#162995"/>
<path d="M83.9361 84.43L81.1641 83.0104C81.0155 82.9045 80.91 82.7488 80.8668 82.5716C80.8236 82.3944 80.8456 82.2076 80.9287 82.0453C81.0119 81.883 81.1506 81.756 81.3196 81.6875C81.4887 81.619 81.6767 81.6136 81.8494 81.6723L84.6214 83.092C84.7699 83.1978 84.8754 83.3535 84.9186 83.5307C84.9618 83.7079 84.9398 83.8947 84.8567 84.057C84.7735 84.2193 84.6348 84.3463 84.4658 84.4148C84.2968 84.4833 84.1087 84.4887 83.9361 84.43Z" fill="#162995"/>
<path d="M87.4916 89.588L79.8101 85.6539C79.6615 85.5481 79.556 85.3923 79.5128 85.2152C79.4696 85.038 79.4916 84.8512 79.5747 84.6889C79.6579 84.5265 79.7966 84.3995 79.9656 84.3311C80.1347 84.2626 80.3227 84.2572 80.4953 84.3158L88.1769 88.2499C88.3254 88.3558 88.4309 88.5115 88.4741 88.6887C88.5173 88.8658 88.4954 89.0527 88.4122 89.215C88.3291 89.3773 88.1904 89.5043 88.0213 89.5728C87.8523 89.6413 87.6643 89.6467 87.4916 89.588Z" fill="#162995"/>
<path d="M69.7998 90.012L65.2397 73.0358L77.4253 70.7291L76.7701 82.3814L92.7809 98.8673C93.6285 98.8327 94.4679 99.0454 95.1967 99.4795C95.9255 99.9137 96.5123 100.551 96.8854 101.312C97.2586 102.074 97.402 102.928 97.2981 103.77C97.1943 104.612 96.8478 105.406 96.3008 106.054C95.7537 106.703 95.0299 107.178 94.2174 107.422C93.405 107.666 92.539 107.668 91.7252 107.429C90.9114 107.189 90.1849 106.718 89.6342 106.073C89.0835 105.428 88.7324 104.636 88.6239 103.795L69.7998 90.012Z" fill="#A0616A"/>
<path d="M63.9928 54.002C59.8566 57.2673 65.1655 75.5323 65.1655 75.5323C65.9874 74.6302 66.9426 87.9618 67.9472 87.5079C70.8026 86.2177 76.0361 81.7688 78.0538 82.1314C79.2076 82.3388 77.9987 73.3133 77.9987 73.3133C77.9987 73.3133 77.7764 68.1382 77.3585 61.4855C77.2752 59.6024 76.7169 57.7711 75.7355 56.1619C74.7541 54.5527 73.3815 53.218 71.7454 52.282C71.7454 52.282 68.1291 50.7366 63.9928 54.002Z" fill="#3F3D56"/>
<path d="M132.816 127.692L121.801 122.491C121.566 122.38 121.358 122.218 121.194 122.015C121.031 121.813 120.915 121.576 120.856 121.323C120.796 121.075 120.793 120.817 120.847 120.568C120.902 120.319 121.012 120.085 121.169 119.885C124.36 115.807 126.551 111.038 127.566 105.961C127.643 105.572 127.852 105.222 128.158 104.97C128.464 104.718 128.848 104.581 129.244 104.58C134.862 104.599 139.06 106.65 141.723 110.676C141.863 110.885 141.956 111.123 141.995 111.372C142.034 111.621 142.019 111.876 141.95 112.118C140.408 117.431 138.062 122.477 134.994 127.081C134.766 127.429 134.42 127.682 134.02 127.795C133.619 127.907 133.192 127.871 132.816 127.692Z" fill="#E6E6E6"/>
<path d="M136.056 120.397L127.634 116.42C127.425 116.321 127.263 116.143 127.185 115.925C127.107 115.707 127.119 115.466 127.217 115.257C127.316 115.047 127.494 114.886 127.713 114.807C127.931 114.729 128.171 114.741 128.381 114.84L136.803 118.817C136.906 118.866 136.999 118.935 137.076 119.02C137.154 119.105 137.213 119.204 137.252 119.312C137.291 119.42 137.308 119.535 137.302 119.649C137.297 119.764 137.268 119.876 137.219 119.98C137.171 120.084 137.102 120.177 137.017 120.254C136.932 120.331 136.832 120.391 136.724 120.429C136.616 120.468 136.502 120.485 136.387 120.48C136.273 120.474 136.16 120.446 136.056 120.397Z" fill="white"/>
<path d="M137.365 117.626L128.943 113.649C128.733 113.55 128.571 113.372 128.493 113.154C128.415 112.936 128.427 112.696 128.526 112.486C128.624 112.277 128.803 112.115 129.021 112.037C129.239 111.959 129.479 111.97 129.689 112.069L138.111 116.046C138.32 116.145 138.482 116.323 138.56 116.541C138.638 116.76 138.627 117 138.528 117.209C138.429 117.419 138.251 117.58 138.032 117.659C137.814 117.737 137.574 117.725 137.365 117.626Z" fill="white"/>
<path d="M126.111 30.6507L125.327 30.7366C121.831 17.0006 115.056 7.48443 105.733 3.21672C93.8804 -2.20831 79.2247 1.4347 64.465 13.4748C49.6304 25.5764 36.4978 44.6916 27.4868 67.3002L26.7261 66.9521C35.7767 44.2447 48.9767 25.0371 63.8944 12.8683C78.887 0.637946 93.8419 -3.03177 106.004 2.5353C115.595 6.9253 122.548 16.6475 126.111 30.6507Z" fill="#F2F2F2"/>
<path d="M39.6196 48.5401C37.5694 52.859 35.6193 57.3335 33.8235 61.839C23.4895 87.7667 18.2526 114.246 18.6806 138.415L17.8729 138.329C17.4445 114.07 22.6964 87.4994 33.0628 61.4909C34.8638 56.9726 36.8194 52.4856 38.8755 48.1544L39.6196 48.5401Z" fill="#F2F2F2"/>
<path d="M39.2319 66.3554C37.1817 70.6743 35.2316 75.1488 33.4358 79.6543C23.1018 105.582 17.8649 132.061 18.2929 156.23L17.4852 156.144C17.0568 131.885 22.3087 105.315 32.6751 79.3062C34.4761 74.7879 36.4317 70.3009 38.4878 65.9697L39.2319 66.3554Z" fill="#F2F2F2"/>
<path d="M17.5239 72.8345C18.4168 71.4926 17.8883 69.5716 16.3436 68.5439C14.7989 67.5162 12.8229 67.7709 11.9301 69.1129C11.0373 70.4549 11.5657 72.3759 13.1104 73.4036C14.6551 74.4313 16.6311 74.1765 17.5239 72.8345Z" fill="#CCCCCC"/>
<path d="M207.64 121.297C208.533 119.955 208.005 118.034 206.46 117.007C204.915 115.979 202.939 116.234 202.046 117.576C201.153 118.918 201.682 120.839 203.227 121.866C204.771 122.894 206.747 122.639 207.64 121.297Z" fill="#CCCCCC"/>
</g>
<defs>
<clipPath id="clip0_65_425">
<rect width="250" height="202.765" fill="white"/>
</clipPath>
</defs>
</svg>
