<svg width="221" height="190" viewBox="0 0 221 190" fill="none" xmlns="http://www.w3.org/2000/svg">
<g clip-path="url(#clip0_71_631)">
<path d="M31.2564 50.7624H13.6555C12.7147 50.7613 11.8127 50.3871 11.1475 49.7219C10.4822 49.0566 10.108 48.1546 10.1069 47.2138V30.7485C10.108 29.8076 10.4822 28.9057 11.1475 28.2404C11.8127 27.5752 12.7147 27.2009 13.6555 27.1999H31.2564C32.1972 27.2009 33.0992 27.5752 33.7644 28.2404C34.4297 28.9057 34.8039 29.8076 34.805 30.7485V47.2138C34.8039 48.1546 34.4297 49.0566 33.7644 49.7219C33.0992 50.3871 32.1972 50.7613 31.2564 50.7624Z" fill="#E6E6E6"/>
<path d="M73.6973 50.9043H56.0964C55.1556 50.9033 54.2536 50.5291 53.5884 49.8638C52.9231 49.1986 52.5489 48.2966 52.5479 47.3558V30.8904C52.5489 29.9496 52.9231 29.0476 53.5884 28.3824C54.2536 27.7171 55.1556 27.3429 56.0964 27.3419H73.6973C74.6381 27.3429 75.5401 27.7171 76.2054 28.3824C76.8706 29.0476 77.2448 29.9496 77.2459 30.8904V47.3558C77.2448 48.2966 76.8706 49.1986 76.2054 49.8638C75.5401 50.5291 74.6381 50.9033 73.6973 50.9043Z" fill="#E6E6E6"/>
<path d="M116.138 51.0463H98.5373C97.5965 51.0453 96.6945 50.671 96.0293 50.0058C95.364 49.3405 94.9898 48.4386 94.9888 47.4977V31.0324C94.9898 30.0916 95.364 29.1896 96.0293 28.5243C96.6945 27.8591 97.5965 27.4849 98.5373 27.4838H116.138C117.079 27.4849 117.981 27.8591 118.646 28.5243C119.312 29.1896 119.686 30.0916 119.687 31.0324V47.4977C119.686 48.4386 119.312 49.3405 118.646 50.0058C117.981 50.671 117.079 51.0453 116.138 51.0463Z" fill="#E6E6E6"/>
<path d="M31.2564 87.6675H13.6555C12.7147 87.6665 11.8127 87.2923 11.1475 86.627C10.4822 85.9618 10.108 85.0598 10.1069 84.119V67.6536C10.108 66.7128 10.4822 65.8108 11.1475 65.1456C11.8127 64.4803 12.7147 64.1061 13.6555 64.105H31.2564C32.1972 64.1061 33.0992 64.4803 33.7644 65.1456C34.4297 65.8108 34.8039 66.7128 34.805 67.6536V84.119C34.8039 85.0598 34.4297 85.9618 33.7644 86.627C33.0992 87.2923 32.1972 87.6665 31.2564 87.6675Z" fill="#E6E6E6"/>
<path d="M73.6973 87.8094H56.0964C55.1556 87.8084 54.2536 87.4342 53.5884 86.7689C52.9231 86.1037 52.5489 85.2017 52.5479 84.2609V67.7955C52.5489 66.8547 52.9231 65.9527 53.5884 65.2875C54.2536 64.6222 55.1556 64.248 56.0964 64.2469H73.6973C74.6381 64.248 75.5401 64.6222 76.2054 65.2875C76.8706 65.9527 77.2448 66.8547 77.2459 67.7955V84.2609C77.2448 85.2017 76.8706 86.1037 76.2054 86.7689C75.5401 87.4342 74.6381 87.8084 73.6973 87.8094Z" fill="#E6E6E6"/>
<path d="M116.138 87.9514H98.5373C97.5965 87.9504 96.6945 87.5761 96.0293 86.9109C95.364 86.2456 94.9898 85.3437 94.9888 84.4028V67.9375C94.9898 66.9967 95.364 66.0947 96.0293 65.4294C96.6945 64.7642 97.5965 64.39 98.5373 64.3889H116.138C117.079 64.39 117.981 64.7642 118.646 65.4294C119.312 66.0947 119.686 66.9967 119.687 67.9375V84.4028C119.686 85.3437 119.312 86.2456 118.646 86.9109C117.981 87.5761 117.079 87.9504 116.138 87.9514Z" fill="#E6E6E6"/>
<path d="M31.2564 124.573H13.6555C12.7147 124.572 11.8127 124.197 11.1475 123.532C10.4822 122.867 10.108 121.965 10.1069 121.024V104.559C10.108 103.618 10.4822 102.716 11.1475 102.051C11.8127 101.385 12.7147 101.011 13.6555 101.01H31.2564C32.1972 101.011 33.0992 101.385 33.7644 102.051C34.4297 102.716 34.8039 103.618 34.805 104.559V121.024C34.8039 121.965 34.4297 122.867 33.7644 123.532C33.0992 124.197 32.1972 124.572 31.2564 124.573Z" fill="#E6E6E6"/>
<path d="M73.6973 124.715H56.0964C55.1556 124.714 54.2536 124.339 53.5884 123.674C52.9231 123.009 52.5489 122.107 52.5479 121.166V104.701C52.5489 103.76 52.9231 102.858 53.5884 102.193C54.2536 101.527 55.1556 101.153 56.0964 101.152H73.6973C74.6381 101.153 75.5401 101.527 76.2054 102.193C76.8706 102.858 77.2448 103.76 77.2459 104.701V121.166C77.2448 122.107 76.8706 123.009 76.2054 123.674C75.5401 124.339 74.6381 124.714 73.6973 124.715Z" fill="#E6E6E6"/>
<path d="M116.138 124.857H98.5373C97.5965 124.855 96.6945 124.481 96.0293 123.816C95.364 123.151 94.9898 122.249 94.9888 121.308V104.843C94.9898 103.902 95.364 103 96.0293 102.335C96.6945 101.669 97.5965 101.295 98.5373 101.294H116.138C117.079 101.295 117.981 101.669 118.646 102.335C119.312 103 119.686 103.902 119.687 104.843V121.308C119.686 122.249 119.312 123.151 118.646 123.816C117.981 124.481 117.079 124.855 116.138 124.857Z" fill="#E6E6E6"/>
<path d="M159.225 152.529L145.605 163.678C144.877 164.273 143.942 164.554 143.006 164.461C142.069 164.368 141.208 163.907 140.612 163.179L130.182 150.438C129.587 149.71 129.306 148.775 129.399 147.838C129.492 146.902 129.953 146.041 130.681 145.445L144.3 134.296C145.029 133.701 145.964 133.419 146.9 133.512C147.836 133.606 148.697 134.067 149.294 134.794L159.723 147.535C160.319 148.264 160.6 149.199 160.507 150.135C160.413 151.071 159.953 151.932 159.225 152.529Z" fill="#6C63FF"/>
<path d="M124.959 174.922L124.695 168.976C121.938 167.503 118.864 166.725 115.738 166.709C120.04 170.226 119.502 177.005 122.419 181.735C123.34 183.203 124.579 184.445 126.045 185.369C127.512 186.293 129.167 186.875 130.889 187.072L134.488 189.276C134.982 186.523 134.873 183.694 134.169 180.987C133.465 178.279 132.182 175.757 130.409 173.593C129.402 172.389 128.248 171.316 126.973 170.4C126.111 172.674 124.959 174.922 124.959 174.922Z" fill="#F2F2F2"/>
<path d="M147.722 134.454C148.017 134.213 148.255 133.91 148.42 133.566C148.585 133.223 148.672 132.848 148.677 132.467C148.681 132.087 148.601 131.709 148.444 131.363C148.287 131.016 148.056 130.708 147.766 130.46L153.654 115.067L148.949 116.064L143.953 130.87C143.569 131.383 143.386 132.02 143.44 132.659C143.494 133.297 143.781 133.894 144.245 134.336C144.71 134.778 145.321 135.034 145.961 135.055C146.602 135.077 147.228 134.863 147.722 134.454Z" fill="#FFB8B8"/>
<path d="M145.298 117.596L150.584 95.6043L152.855 89.2113C153.04 88.6923 153.325 88.2149 153.695 87.8067C154.064 87.3984 154.511 87.0674 155.009 86.8326C155.508 86.5978 156.047 86.4639 156.598 86.4386C157.148 86.4133 157.698 86.4972 158.215 86.6853C158.895 86.9342 159.498 87.3546 159.967 87.9055C160.435 88.4565 160.754 89.1193 160.89 89.8296L161.459 92.8202L150.876 129.827L150.852 129.912L143.962 129.448L145.298 117.596Z" fill="#2F2E41"/>
<path d="M166.751 80.8811L154.982 104.683L147.536 129.992C163.222 133.05 182.904 139.594 184.321 130.209C183.448 104.045 180.698 95.6998 175.02 84.3571L166.751 80.8811Z" fill="#2F2E41"/>
<path d="M156.222 185.743L152.527 185.743L150.769 171.489L156.223 171.489L156.222 185.743Z" fill="#FFB6B6"/>
<path d="M157.165 189.325L145.249 189.324V189.174C145.249 187.944 145.738 186.764 146.608 185.894C147.477 185.025 148.657 184.536 149.887 184.536H149.887L152.064 182.885L156.125 184.536L157.165 184.536L157.165 189.325Z" fill="#2F2E41"/>
<path d="M189.612 180.938L186.305 182.587L178.373 170.614L183.254 168.181L189.612 180.938Z" fill="#FFB6B6"/>
<path d="M192.054 183.724L181.39 189.039L181.322 188.904C180.774 187.803 180.685 186.529 181.075 185.363C181.466 184.197 182.303 183.233 183.404 182.684L183.405 182.684L184.616 180.235L188.987 179.902L189.918 179.438L192.054 183.724Z" fill="#2F2E41"/>
<path d="M154.585 121.007L174.962 121.721L176.485 124.55C176.485 124.55 178.081 136.127 177.264 136.944C176.447 137.761 176.038 137.761 176.447 139.192C176.855 140.622 177.912 154.287 177.912 154.287C177.912 154.287 186.329 171.747 186.738 172.769C187.147 173.79 187.555 173.382 187.147 173.79C186.785 174.181 186.444 174.59 186.125 175.016H179.465C179.465 175.016 175.879 165.971 172.597 162.472C169.698 159.383 167.862 155.448 167.358 151.242L164.596 138.17L158.671 158.193C158.671 158.193 157.649 178.012 157.854 179.033L158.058 180.055L150.208 180.143C150.208 180.143 149.391 178.42 149.8 177.807C150.208 177.194 150.184 177.362 149.685 176.359C149.187 175.356 149.391 173.656 149.391 173.656C149.391 173.656 152.337 133.471 152.337 132.858C152.353 132.542 152.294 132.228 152.167 131.939V131.107L152.95 128.158L154.585 121.007Z" fill="#2F2E41"/>
<path d="M168.13 84.4108L166.743 81.0924L162.451 81.1678L157.975 87.4995L153.276 107.257C153.276 107.257 151.589 121.69 153.276 122.452C154.964 123.214 175.397 122.809 175.397 122.809C174.451 115.014 173.746 107.085 173.003 102.349C170.547 86.6938 169.388 89.9883 168.13 84.4108Z" fill="#6C63FF"/>
<path d="M162.451 81.1678C162.451 81.1678 153.204 86.5131 152.842 89.3033C152.48 92.0936 151.27 126.245 151.27 126.245L154.54 124.132L155.433 111.685C154.81 100.625 156.331 92.3809 159.424 86.2012L162.451 81.1678Z" fill="#2F2E41"/>
<path d="M164.634 79.613C168.114 79.613 170.936 76.7915 170.936 73.3109C170.936 69.8303 168.114 67.0088 164.634 67.0088C161.153 67.0088 158.332 69.8303 158.332 73.3109C158.332 76.7915 161.153 79.613 164.634 79.613Z" fill="#FFB8B8"/>
<path d="M172.399 72.9367C172.117 74.2136 171.61 75.4298 170.9 76.5279C170.711 76.9023 170.43 77.222 170.082 77.4562C169.906 77.5691 169.696 77.6168 169.489 77.5908C169.281 77.5649 169.089 77.467 168.947 77.3142L168.793 77.1893C169.094 77.0041 169.362 76.7711 169.588 76.4995C169.7 76.3632 169.778 76.2022 169.815 76.0299C169.852 75.8576 169.847 75.6789 169.801 75.5087C169.747 75.3409 169.629 75.2007 169.474 75.1176C169.318 75.0345 169.136 75.0149 168.966 75.063C168.597 75.2078 168.373 75.7415 167.987 75.6592C167.675 75.5911 167.61 75.1794 167.61 74.8558C167.621 73.1638 166.803 70.7593 166.17 70.8331C165.531 70.8681 164.89 70.7824 164.282 70.5805C163.674 70.3782 163.032 70.2963 162.392 70.3392C162.346 70.3449 162.301 70.3534 162.253 70.3619C162.15 70.0404 162.009 69.7325 161.832 69.4449C161.852 69.7921 161.835 70.1404 161.781 70.484C161.272 70.6938 160.746 70.86 160.209 70.9808C159.624 71.0631 158.338 72.8118 158.278 72.633C158.176 72.3115 158.035 72.0036 157.858 71.716C157.878 72.0632 157.861 72.4115 157.807 72.755C157.804 72.7692 157.804 72.7806 157.801 72.7948C157.517 72.4172 157.344 71.9573 157.441 72.3093C156.49 70.1575 156.859 68.616 158.355 66.802C158.646 66.4119 159.032 66.1023 159.476 65.902C159.699 65.8044 159.942 65.7656 160.184 65.7895C160.426 65.8133 160.657 65.899 160.856 66.0383C161.466 65.4789 162.215 65.0928 163.024 64.9201C163.834 64.7474 164.675 64.7943 165.461 65.0561C167.019 65.5983 168.22 65.9162 168.458 67.5514C169.747 67.3442 171.073 68.0766 171.783 69.1696C172.454 70.3032 172.674 71.6482 172.399 72.9367Z" fill="#2F2E41"/>
<path d="M190.058 132.899C190.2 132.545 190.262 132.165 190.241 131.785C190.22 131.405 190.116 131.034 189.936 130.698C189.756 130.363 189.504 130.071 189.199 129.843C188.894 129.615 188.543 129.457 188.17 129.38L185.898 113.056L182.257 116.2L185.028 131.579C184.939 132.214 185.087 132.859 185.442 133.393C185.798 133.926 186.337 134.311 186.957 134.474C187.577 134.636 188.235 134.566 188.807 134.276C189.378 133.985 189.824 133.495 190.058 132.899Z" fill="#FFB8B8"/>
<path d="M183.351 126.905L169.845 90.7684L170.175 87.7423C170.256 87.0234 170.52 86.3375 170.944 85.7512C171.368 85.1649 171.936 84.6982 172.594 84.3964C173.095 84.1679 173.636 84.0408 174.187 84.0225C174.737 84.0042 175.286 84.095 175.801 84.2896C176.316 84.4843 176.788 84.779 177.189 85.1567C177.59 85.5345 177.912 85.9878 178.137 86.4906L180.911 92.6946L187.918 114.202L190.184 125.898L183.351 126.905Z" fill="#2F2E41"/>
<path d="M220.236 189.559C220.236 189.617 220.224 189.674 220.202 189.728C220.18 189.782 220.148 189.83 220.107 189.871C220.066 189.912 220.017 189.945 219.964 189.967C219.91 189.989 219.853 190 219.795 190H101.116C100.999 190 100.887 189.954 100.804 189.871C100.722 189.788 100.675 189.676 100.675 189.559C100.675 189.442 100.722 189.33 100.804 189.247C100.887 189.165 100.999 189.118 101.116 189.118H219.795C219.853 189.118 219.91 189.129 219.964 189.151C220.017 189.173 220.066 189.206 220.107 189.247C220.148 189.288 220.18 189.337 220.202 189.39C220.224 189.444 220.236 189.501 220.236 189.559Z" fill="#CCCCCC"/>
<path d="M129.469 9.78958H0.501566C0.367437 9.78673 0.239769 9.73144 0.14592 9.63557C0.0520718 9.5397 -0.000488281 9.41088 -0.000488281 9.27672C-0.000488281 9.14256 0.0520718 9.01374 0.14592 8.91787C0.239769 8.822 0.367437 8.76671 0.501566 8.76385H129.469C129.603 8.76671 129.731 8.822 129.824 8.91787C129.918 9.01374 129.971 9.14256 129.971 9.27672C129.971 9.41088 129.918 9.5397 129.824 9.63557C129.731 9.73144 129.603 9.78673 129.469 9.78958Z" fill="#CACACA"/>
<path d="M9.28054 6.14524C10.9405 6.14524 12.2862 4.76958 12.2862 3.07262C12.2862 1.37566 10.9405 0 9.28054 0C7.62057 0 6.2749 1.37566 6.2749 3.07262C6.2749 4.76958 7.62057 6.14524 9.28054 6.14524Z" fill="#3F3D56"/>
<path d="M19.6638 6.14524C21.3238 6.14524 22.6695 4.76958 22.6695 3.07262C22.6695 1.37566 21.3238 0 19.6638 0C18.0039 0 16.6582 1.37566 16.6582 3.07262C16.6582 4.76958 18.0039 6.14524 19.6638 6.14524Z" fill="#3F3D56"/>
<path d="M30.0467 6.14524C31.7066 6.14524 33.0523 4.76958 33.0523 3.07262C33.0523 1.37566 31.7066 0 30.0467 0C28.3867 0 27.041 1.37566 27.041 3.07262C27.041 4.76958 28.3867 6.14524 30.0467 6.14524Z" fill="#3F3D56"/>
<path d="M123.217 0.761597H115.841C115.695 0.764489 115.556 0.824599 115.454 0.929017C115.351 1.03343 115.294 1.17383 115.294 1.32006C115.294 1.46629 115.351 1.60669 115.454 1.71111C115.556 1.81553 115.695 1.87564 115.841 1.87853H123.217C123.363 1.87564 123.503 1.81553 123.605 1.71111C123.707 1.60669 123.765 1.46629 123.765 1.32006C123.765 1.17383 123.707 1.03343 123.605 0.929017C123.503 0.824599 123.363 0.764489 123.217 0.761597Z" fill="#3F3D56"/>
<path d="M123.217 2.85791H115.841C115.695 2.8608 115.556 2.92091 115.454 3.02533C115.351 3.12975 115.294 3.27015 115.294 3.41638C115.294 3.56261 115.351 3.70301 115.454 3.80742C115.556 3.91184 115.695 3.97195 115.841 3.97484H123.217C123.363 3.97195 123.503 3.91184 123.605 3.80742C123.707 3.70301 123.765 3.56261 123.765 3.41638C123.765 3.27015 123.707 3.12975 123.605 3.02533C123.503 2.92091 123.363 2.8608 123.217 2.85791Z" fill="#3F3D56"/>
<path d="M123.217 4.95148H115.841C115.695 4.95437 115.556 5.01448 115.454 5.1189C115.351 5.22332 115.294 5.36371 115.294 5.50994C115.294 5.65617 115.351 5.79657 115.454 5.90099C115.556 6.00541 115.695 6.06552 115.841 6.06841H123.217C123.363 6.06552 123.503 6.00541 123.605 5.90099C123.707 5.79657 123.765 5.65617 123.765 5.50994C123.765 5.36371 123.707 5.22332 123.605 5.1189C123.503 5.01448 123.363 4.95437 123.217 4.95148Z" fill="#3F3D56"/>
</g>
<defs>
<clipPath id="clip0_71_631">
<rect width="220.235" height="190" fill="white"/>
</clipPath>
</defs>
</svg>
